<?xml version="1.0" encoding="UTF-8" standalone="no"?>
<svg
   xmlns:dc="http://purl.org/dc/elements/1.1/"
   xmlns:cc="http://creativecommons.org/ns#"
   xmlns:rdf="http://www.w3.org/1999/02/22-rdf-syntax-ns#"
   xmlns:svg="http://www.w3.org/2000/svg"
   xmlns="http://www.w3.org/2000/svg"
   xml:space="preserve"
   enable-background="new 0 0 595.28 595.28"
   viewBox="0 0 595.28 595.28"
   height="595.28px"
   width="595.28px"
   y="0px"
   x="0px"
   id="Layer_1"
   version="1.1"><metadata
   id="metadata460"><rdf:RDF><cc:Work
       rdf:about=""><dc:format>image/svg+xml</dc:format><dc:type
         rdf:resource="http://purl.org/dc/dcmitype/StillImage" /><dc:title></dc:title></cc:Work></rdf:RDF></metadata><defs
   id="defs458" />
<radialGradient
   gradientUnits="userSpaceOnUse"
   r="356.2693"
   cy="297.6396"
   cx="297.6396"
   id="SVGID_1_">
	<stop
   id="stop2"
   style="stop-color:#FFFFFF"
   offset="0" />
	<stop
   id="stop4"
   style="stop-color:#FDFEFD"
   offset="0.4878" />
	<stop
   id="stop6"
   style="stop-color:#F6FAF6"
   offset="0.7082" />
	<stop
   id="stop8"
   style="stop-color:#E9F4E9"
   offset="0.8742" />
	<stop
   id="stop10"
   style="stop-color:#DAECD9"
   offset="1" />
</radialGradient>

<path
   id="path15"
   d="M498.195,209.851l-15.669-15.668c0.065,0.066,0.075,0.163,0.021,0.218l-1.268,1.267  c-0.055,0.054-0.151,0.045-0.217-0.02s-0.074-0.163-0.021-0.217l1.268-1.267c0.055-0.055,0.151-0.046,0.217,0.02l-0.772-0.773  c0.065,0.065,0.083,0.153,0.04,0.195l-1.983,1.983c-0.042,0.042-0.129,0.024-0.194-0.041c-0.065-0.066-0.084-0.153-0.042-0.196  l1.983-1.983c0.043-0.042,0.13-0.024,0.196,0.042l-0.773-0.773c0.064,0.065,0.074,0.163,0.02,0.218l-1.267,1.267  c-0.055,0.054-0.152,0.045-0.218-0.02c-0.065-0.066-0.074-0.163-0.02-0.217l1.267-1.267c0.055-0.054,0.152-0.046,0.218,0.02  l-0.773-0.773c0.065,0.065,0.084,0.153,0.041,0.196l-1.983,1.983c-0.042,0.042-0.13,0.024-0.195-0.041s-0.084-0.153-0.041-0.196  l1.983-1.983c0.042-0.043,0.13-0.024,0.195,0.041l-0.773-0.773c0.065,0.065,0.074,0.163,0.02,0.217l-1.267,1.267  c-0.055,0.054-0.152,0.045-0.218-0.02c-0.065-0.065-0.074-0.163-0.02-0.217l1.267-1.267c0.055-0.054,0.152-0.045,0.218,0.02  l-0.772-0.773c0.064,0.065,0.083,0.153,0.041,0.196l-1.983,1.983c-0.043,0.042-0.131,0.024-0.195-0.041  c-0.065-0.065-0.084-0.153-0.042-0.196l1.983-1.983c0.043-0.042,0.131-0.024,0.196,0.042l-0.773-0.773  c0.065,0.065,0.074,0.163,0.02,0.217l-1.268,1.267c-0.054,0.054-0.151,0.046-0.217-0.02c-0.065-0.066-0.074-0.163-0.021-0.217  l1.268-1.267c0.055-0.055,0.152-0.046,0.218,0.02l-0.773-0.773c0.065,0.065,0.084,0.153,0.041,0.196l-1.983,1.983  c-0.043,0.042-0.13,0.024-0.195-0.042s-0.084-0.153-0.041-0.195l1.982-1.983c0.043-0.042,0.131-0.024,0.196,0.041l-0.773-0.773  c0.065,0.065,0.074,0.162,0.02,0.217l-1.268,1.267c-0.054,0.054-0.151,0.046-0.217-0.02s-0.074-0.163-0.02-0.217l1.268-1.267  c0.054-0.055,0.151-0.046,0.217,0.02l-0.773-0.773c0.065,0.065,0.084,0.153,0.042,0.196l-1.983,1.983  c-0.043,0.042-0.131,0.024-0.196-0.042s-0.084-0.153-0.041-0.195l1.983-1.983c0.043-0.043,0.13-0.024,0.195,0.041l-0.773-0.773  c0.065,0.065,0.074,0.163,0.02,0.217l-1.267,1.267c-0.055,0.054-0.152,0.045-0.217-0.02c-0.065-0.065-0.075-0.163-0.021-0.217  l1.268-1.267c0.054-0.055,0.151-0.045,0.217,0.02l-0.773-0.773c0.066,0.065,0.085,0.153,0.042,0.196l-1.983,1.983  c-0.043,0.042-0.13,0.024-0.196-0.042c-0.064-0.065-0.083-0.152-0.041-0.195l1.983-1.983c0.043-0.042,0.131-0.024,0.195,0.041  l-0.772-0.773c0.065,0.065,0.074,0.163,0.02,0.217L472,186.388c-0.054,0.055-0.151,0.046-0.217-0.02s-0.074-0.163-0.02-0.217  l1.268-1.267c0.054-0.054,0.151-0.046,0.217,0.02l-0.773-0.773c0.065,0.065,0.084,0.153,0.041,0.196l-1.983,1.983  c-0.042,0.042-0.13,0.024-0.195-0.041c-0.065-0.065-0.083-0.153-0.041-0.195l1.983-1.983c0.043-0.042,0.13-0.024,0.195,0.041  l-0.773-0.773c0.065,0.066,0.074,0.163,0.02,0.217l-1.267,1.267c-0.055,0.054-0.151,0.046-0.218-0.02  c-0.064-0.065-0.073-0.163-0.02-0.217l1.268-1.267c0.055-0.055,0.151-0.046,0.217,0.02l-0.772-0.773  c0.064,0.065,0.083,0.153,0.041,0.196l-1.983,1.983c-0.043,0.042-0.131,0.023-0.195-0.042c-0.065-0.065-0.084-0.153-0.042-0.196  l1.983-1.983c0.043-0.042,0.131-0.024,0.196,0.042l-0.774-0.773c0.066,0.066,0.075,0.163,0.021,0.217l-1.268,1.267  c-0.054,0.054-0.151,0.046-0.217-0.02c-0.065-0.065-0.074-0.162-0.02-0.217l1.267-1.267c0.055-0.054,0.152-0.045,0.217,0.02  l-0.772-0.773c0.065,0.065,0.084,0.153,0.041,0.195l-1.983,1.983c-0.042,0.042-0.13,0.024-0.195-0.042  c-0.065-0.065-0.084-0.153-0.041-0.195l1.983-1.983c0.042-0.043,0.13-0.024,0.195,0.041l-0.773-0.773  c0.065,0.065,0.074,0.163,0.02,0.218l-1.267,1.267c-0.055,0.054-0.151,0.045-0.218-0.021c-0.065-0.065-0.073-0.163-0.02-0.217  l1.267-1.267c0.055-0.055,0.152-0.046,0.218,0.02l-0.772-0.773c0.064,0.065,0.083,0.153,0.04,0.196l-1.982,1.983  c-0.043,0.043-0.13,0.024-0.195-0.041s-0.085-0.153-0.042-0.196l1.982-1.983c0.043-0.043,0.132-0.024,0.197,0.042l-0.773-0.773  c0.065,0.065,0.073,0.163,0.02,0.217l-1.268,1.267c-0.054,0.054-0.151,0.045-0.217-0.02c-0.065-0.065-0.074-0.163-0.02-0.217  l1.267-1.267c0.055-0.054,0.152-0.046,0.218,0.02l-0.773-0.773c0.065,0.066,0.084,0.153,0.041,0.196l-1.983,1.983  c-0.043,0.042-0.13,0.024-0.195-0.042c-0.065-0.065-0.084-0.153-0.042-0.195l1.983-1.983c0.043-0.043,0.131-0.024,0.196,0.041  l-0.773-0.773c0.065,0.065,0.074,0.163,0.02,0.217l-1.267,1.267c-0.055,0.054-0.151,0.045-0.218-0.02  c-0.065-0.065-0.073-0.162-0.02-0.216l1.268-1.267c0.055-0.055,0.151-0.046,0.217,0.019l-0.773-0.773  c0.065,0.065,0.084,0.152,0.041,0.195l-1.983,1.983c-0.042,0.043-0.13,0.024-0.194-0.041c-0.066-0.066-0.085-0.153-0.042-0.196  l1.983-1.983c0.043-0.043,0.13-0.024,0.195,0.042l-0.773-0.774c0.065,0.065,0.074,0.163,0.02,0.218l-1.267,1.267  c-0.054,0.054-0.152,0.045-0.218-0.02c-0.064-0.065-0.073-0.163-0.02-0.217l1.268-1.268c0.055-0.054,0.151-0.046,0.217,0.02  l-0.772-0.773c0.065,0.065,0.083,0.153,0.04,0.196l-1.982,1.983c-0.043,0.042-0.13,0.024-0.195-0.042s-0.085-0.153-0.042-0.196  l1.983-1.983c0.043-0.043,0.131-0.024,0.196,0.041l-0.773-0.773c0.065,0.065,0.074,0.163,0.02,0.217l-1.268,1.267  c-0.054,0.054-0.151,0.045-0.217-0.02s-0.074-0.163-0.02-0.217l1.267-1.267c0.055-0.055,0.152-0.045,0.218,0.02l-0.773-0.773  c0.065,0.065,0.084,0.153,0.041,0.196l-1.983,1.983c-0.042,0.043-0.13,0.024-0.195-0.041c-0.065-0.066-0.084-0.153-0.041-0.195  l1.982-1.983c0.043-0.043,0.131-0.025,0.196,0.041l-0.773-0.774c0.065,0.066,0.074,0.164,0.02,0.218l-1.267,1.267  c-0.055,0.054-0.151,0.045-0.218-0.021c-0.065-0.065-0.073-0.163-0.02-0.217l1.268-1.267c0.054-0.054,0.151-0.046,0.217,0.019  l-4.142-4.141l-0.649,0.649c0.065-0.065,0.153-0.083,0.196-0.041l1.982,1.983c0.043,0.042,0.024,0.13-0.041,0.195  c-0.065,0.065-0.152,0.084-0.195,0.041l-1.983-1.983c-0.042-0.043-0.023-0.13,0.041-0.196l-0.772,0.773  c0.065-0.065,0.162-0.074,0.217-0.02l1.268,1.267c0.054,0.054,0.045,0.152-0.021,0.217c-0.065,0.065-0.163,0.074-0.217,0.02  l-1.268-1.267c-0.054-0.055-0.045-0.152,0.021-0.217l-0.773,0.773c0.065-0.065,0.152-0.083,0.195-0.041l1.983,1.983  c0.043,0.042,0.024,0.13-0.041,0.195c-0.066,0.065-0.153,0.084-0.195,0.042l-1.983-1.983c-0.043-0.043-0.024-0.13,0.041-0.196  l-0.773,0.773c0.065-0.065,0.163-0.074,0.218-0.02l1.267,1.267c0.055,0.055,0.045,0.152-0.02,0.217  c-0.066,0.066-0.163,0.075-0.218,0.021l-1.267-1.267c-0.055-0.055-0.046-0.152,0.02-0.217l-0.773,0.773  c0.065-0.066,0.153-0.084,0.196-0.042l1.983,1.983c0.042,0.042,0.023,0.13-0.042,0.195s-0.152,0.084-0.195,0.042l-1.983-1.983  c-0.043-0.043-0.024-0.13,0.041-0.195l-0.773,0.773c0.066-0.066,0.163-0.074,0.218-0.02l1.267,1.267  c0.055,0.054,0.046,0.151-0.02,0.217s-0.163,0.074-0.218,0.02l-1.267-1.267c-0.055-0.055-0.046-0.152,0.02-0.217l-0.772,0.772  c0.065-0.065,0.152-0.084,0.195-0.041l1.983,1.983c0.043,0.042,0.023,0.13-0.041,0.195c-0.065,0.065-0.153,0.084-0.196,0.042  l-1.982-1.983c-0.043-0.043-0.024-0.131,0.041-0.196l-0.773,0.774c0.065-0.066,0.162-0.075,0.217-0.02l1.268,1.267  c0.054,0.054,0.045,0.151-0.021,0.217s-0.162,0.074-0.217,0.02l-1.267-1.267c-0.055-0.055-0.046-0.151,0.02-0.217l-0.773,0.773  c0.065-0.066,0.153-0.084,0.196-0.041l1.982,1.983c0.043,0.042,0.024,0.13-0.041,0.196c-0.065,0.065-0.152,0.083-0.195,0.041  l-1.983-1.983c-0.043-0.042-0.024-0.13,0.041-0.195l-0.773,0.773c0.065-0.065,0.163-0.074,0.218-0.019l1.267,1.267  c0.055,0.054,0.046,0.151-0.02,0.217s-0.163,0.074-0.217,0.02l-1.268-1.267c-0.055-0.054-0.046-0.152,0.02-0.217l-0.772,0.773  c0.065-0.066,0.152-0.084,0.195-0.041l1.983,1.983c0.042,0.042,0.024,0.129-0.042,0.195c-0.065,0.065-0.152,0.084-0.195,0.042  l-1.983-1.983c-0.043-0.043-0.024-0.13,0.042-0.196l-0.773,0.773c0.064-0.065,0.162-0.075,0.217-0.02l1.268,1.267  c0.054,0.054,0.045,0.152-0.021,0.217c-0.065,0.065-0.163,0.074-0.217,0.02l-1.268-1.267c-0.055-0.055-0.045-0.152,0.021-0.217  l-0.773,0.773c0.065-0.066,0.153-0.084,0.196-0.042l1.982,1.983c0.043,0.043,0.024,0.13-0.041,0.196s-0.153,0.084-0.195,0.041  l-1.983-1.983c-0.043-0.043-0.024-0.13,0.041-0.195l-0.773,0.773c0.065-0.065,0.162-0.074,0.217-0.02l1.268,1.267  c0.054,0.054,0.045,0.151-0.02,0.217c-0.066,0.065-0.163,0.074-0.217,0.02l-1.268-1.267c-0.054-0.055-0.046-0.151,0.02-0.217  l-0.773,0.773c0.066-0.065,0.153-0.084,0.196-0.041l1.983,1.983c0.042,0.043,0.023,0.13-0.042,0.196  c-0.065,0.065-0.152,0.083-0.195,0.041l-1.982-1.983c-0.043-0.043-0.024-0.13,0.04-0.196l-0.773,0.773  c0.066-0.065,0.163-0.074,0.218-0.02l1.267,1.267c0.055,0.054,0.046,0.151-0.02,0.217s-0.162,0.074-0.217,0.02l-1.267-1.267  c-0.055-0.055-0.046-0.152,0.019-0.217l-0.772,0.773c0.065-0.065,0.153-0.084,0.196-0.042l1.982,1.983  c0.043,0.042,0.023,0.13-0.041,0.196c-0.065,0.065-0.153,0.084-0.196,0.042l-1.982-1.983c-0.043-0.043-0.024-0.131,0.041-0.196  l-0.773,0.773c0.065-0.065,0.163-0.074,0.218-0.02l1.267,1.267c0.055,0.055,0.046,0.151-0.021,0.217  c-0.064,0.065-0.162,0.074-0.216,0.02l-1.268-1.267c-0.055-0.055-0.046-0.152,0.02-0.217l-0.773,0.773  c0.065-0.065,0.153-0.083,0.196-0.041l1.982,1.983c0.043,0.042,0.024,0.13-0.041,0.195s-0.152,0.084-0.195,0.042l-1.983-1.983  c-0.043-0.043-0.024-0.13,0.041-0.196l-0.772,0.773c0.065-0.065,0.162-0.074,0.217-0.02l1.268,1.267  c0.054,0.054,0.045,0.151-0.021,0.217c-0.065,0.065-0.163,0.074-0.217,0.02l-1.268-1.267c-0.055-0.055-0.045-0.152,0.021-0.217  l-0.773,0.773c0.065-0.066,0.152-0.084,0.195-0.041l1.983,1.983c0.042,0.042,0.024,0.13-0.042,0.195  c-0.064,0.065-0.152,0.084-0.195,0.042l-1.982-1.983c-0.043-0.043-0.024-0.131,0.041-0.196l-0.773,0.773  c0.065-0.065,0.162-0.074,0.217-0.02l1.268,1.267c0.054,0.054,0.045,0.151-0.021,0.217c-0.064,0.065-0.162,0.074-0.217,0.02  l-1.267-1.267c-0.055-0.055-0.046-0.152,0.02-0.217l-0.773,0.773c0.065-0.066,0.153-0.084,0.196-0.042l1.982,1.983  c0.043,0.042,0.024,0.13-0.041,0.195c-0.065,0.066-0.152,0.084-0.195,0.042l-1.983-1.983c-0.043-0.042-0.024-0.13,0.041-0.195  l-0.773,0.773c0.065-0.065,0.163-0.074,0.218-0.02l1.267,1.267c0.055,0.054,0.046,0.151-0.02,0.217s-0.163,0.074-0.217,0.02  l-1.268-1.267c-0.055-0.055-0.046-0.152,0.02-0.217l-0.772,0.773c0.065-0.065,0.152-0.084,0.195-0.041l1.983,1.983  c0.042,0.042,0.023,0.13-0.042,0.195c-0.065,0.066-0.152,0.084-0.195,0.042l-1.982-1.983c-0.043-0.043-0.024-0.13,0.041-0.196  l-0.774,0.773c0.066-0.066,0.163-0.075,0.218-0.02l1.268,1.267c0.054,0.054,0.045,0.151-0.021,0.217  c-0.065,0.065-0.162,0.074-0.217,0.02l-1.267-1.267c-0.055-0.055-0.046-0.151,0.019-0.217l-0.772,0.773  c0.065-0.065,0.153-0.084,0.196-0.041l1.982,1.983c0.043,0.043,0.024,0.13-0.041,0.196c-0.065,0.065-0.153,0.084-0.195,0.042  l-1.983-1.983c-0.043-0.043-0.024-0.13,0.041-0.196l-0.773,0.773c0.065-0.065,0.163-0.074,0.218-0.02l1.267,1.267  c0.054,0.054,0.046,0.151-0.021,0.217c-0.064,0.065-0.162,0.074-0.217,0.02l-1.267-1.267c-0.055-0.055-0.046-0.152,0.02-0.217  l-0.772,0.773c0.064-0.065,0.152-0.083,0.195-0.041l1.982,1.983c0.043,0.042,0.024,0.13-0.041,0.195s-0.152,0.084-0.195,0.042  l-1.983-1.983c-0.043-0.043-0.024-0.13,0.042-0.196l-0.774,0.773c0.066-0.065,0.163-0.074,0.218-0.02l1.268,1.267  c0.054,0.055,0.045,0.151-0.021,0.217c-0.065,0.065-0.163,0.074-0.217,0.02l-1.267-1.267c-0.055-0.055-0.047-0.152,0.019-0.217  l-1.427,1.428L498.195,209.851z M456.734,176.619l21.918,21.918l-34.87-8.966L456.734,176.619z"
   fill="#1AA94B" />
<path
   id="path17"
   d="M527.909,300.69c-0.925-0.191-3.544-0.735-4.815-0.999c-0.361-1.241-0.847-2.428-1.459-3.54  c0.715-1.088,2.178-3.316,2.694-4.104c0.694-1.058,0.792-1.774,0.186-2.38l-1.671-1.671l-1.671-1.671  c-0.605-0.606-1.321-0.509-2.38,0.186c-0.787,0.517-3.016,1.98-4.104,2.694c-1.111-0.611-2.299-1.098-3.54-1.459  c-0.264-1.271-0.807-3.891-0.998-4.815c-0.257-1.239-0.695-1.814-1.552-1.814h-2.363h-2.362c-0.857,0-1.295,0.575-1.552,1.814  c-0.191,0.924-0.735,3.544-0.999,4.815c-1.241,0.362-2.429,0.848-3.54,1.459c-1.088-0.714-3.316-2.177-4.104-2.694  c-1.058-0.695-1.773-0.792-2.38-0.186l-1.671,1.671l-1.671,1.671c-0.605,0.606-0.509,1.322,0.186,2.38  c0.518,0.788,1.98,3.016,2.694,4.104c-0.611,1.112-1.098,2.299-1.459,3.54c-1.271,0.264-3.891,0.808-4.814,0.999  c-1.239,0.257-1.814,0.694-1.814,1.552v2.362v2.363c0,0.856,0.575,1.295,1.814,1.552c0.924,0.191,3.543,0.734,4.814,0.998  c0.361,1.241,0.848,2.429,1.459,3.54c-0.714,1.088-2.177,3.316-2.694,4.104c-0.694,1.058-0.791,1.773-0.186,2.379l1.671,1.671  l1.671,1.671c0.606,0.606,1.322,0.509,2.38-0.186c0.787-0.517,3.016-1.979,4.104-2.694c1.111,0.611,2.299,1.098,3.54,1.459  c0.264,1.271,0.808,3.892,0.999,4.815c0.257,1.239,0.694,1.814,1.552,1.814h2.362h2.363c0.856,0,1.295-0.575,1.552-1.814  c0.191-0.924,0.734-3.544,0.998-4.815c1.241-0.361,2.429-0.848,3.54-1.459c1.088,0.715,3.316,2.178,4.104,2.694  c1.059,0.694,1.774,0.792,2.38,0.186l1.671-1.671l1.671-1.671c0.606-0.605,0.509-1.321-0.186-2.379  c-0.517-0.788-1.979-3.017-2.694-4.104c0.612-1.111,1.098-2.299,1.459-3.54c1.271-0.264,3.891-0.807,4.815-0.998  c1.239-0.257,1.814-0.695,1.814-1.552v-2.363v-2.362C529.724,301.385,529.148,300.947,527.909,300.69z M506.236,313.771  c-5.062,0-9.165-4.104-9.165-9.166c0-5.062,4.104-9.165,9.165-9.165c5.062,0,9.166,4.104,9.166,9.165  C515.402,309.667,511.299,313.771,506.236,313.771z"
   fill="#1AA94B" />
<g
   id="g23">
	<path
   id="path19"
   d="M408.693,361.982c1.512,2.861,1.174,6.121-1.131,8.466c-2.071,2.107-4.813,3.007-7.503,4.017   c-3.006,1.129-5.341,3.986-5.931,7.128c-0.67-2.816-0.539-5.931-0.303-8.805c0.216-2.627,0.647-5.286,1.59-7.758   c0.739-1.94,1.857-3.893,3.664-5.018c2.006-1.249,4.423-1.077,6.575-0.32c0.491,0.173,1.036-0.041,1.273-0.505   c0.575-1.125,1.905-3.354,3.473-3.049c1.481,0.289,2.028,2.623,0.647,3.383c-0.537,0.295-1.343,0.713-1.963,1.077   C408.605,360.882,408.433,361.489,408.693,361.982z"
   fill="#1AA94B" />
	<path
   id="path21"
   d="M410.628,361.192c-0.849,1.508-0.714,3.255,0.484,4.541c1.077,1.156,2.53,1.676,3.954,2.254   c1.591,0.646,2.798,2.207,3.068,3.895c0.398-1.496,0.373-3.163,0.287-4.702c-0.078-1.407-0.271-2.835-0.739-4.17   c-0.368-1.047-0.938-2.107-1.888-2.734c-1.055-0.695-2.349-0.639-3.51-0.264c-0.266,0.085-0.554-0.037-0.674-0.288   c-0.292-0.61-0.971-1.821-1.813-1.68c-0.796,0.134-1.121,1.374-0.394,1.8c0.282,0.165,0.707,0.399,1.033,0.604   C410.69,360.605,410.774,360.933,410.628,361.192z"
   fill="#1AA94B" />
</g>
<g
   id="g29">
	<path
   id="path25"
   d="M448.398,308.941c-2.789-2.292-6.428-2.651-9.504-0.657c-2.767,1.793-4.362,4.587-6.067,7.302   c-1.906,3.032-5.551,4.944-9.115,4.887c2.928,1.361,6.36,1.915,9.554,2.299c2.918,0.352,5.922,0.475,8.833-0.003   c2.285-0.374,4.669-1.159,6.302-2.882c1.813-1.912,2.167-4.592,1.82-7.114c-0.079-0.575,0.276-1.123,0.836-1.278   c1.358-0.377,4.093-1.332,4.108-3.113c0.016-1.683-2.413-2.802-3.552-1.463c-0.442,0.521-1.079,1.307-1.616,1.903   C449.581,309.283,448.879,309.336,448.398,308.941z"
   fill="#1AA94B" />
	<path
   id="path27"
   d="M449.694,307.004c-1.838,0.59-3.718,0.053-4.854-1.545c-1.022-1.436-1.266-3.14-1.579-4.824   c-0.351-1.883-1.786-3.551-3.569-4.224c1.724-0.101,3.539,0.3,5.202,0.738c1.521,0.4,3.038,0.93,4.392,1.74   c1.062,0.637,2.093,1.496,2.565,2.674c0.524,1.308,0.173,2.709-0.496,3.895c-0.152,0.271-0.083,0.613,0.164,0.801   c0.601,0.455,1.772,1.468,1.43,2.356c-0.324,0.84-1.751,0.918-2.054,0.028c-0.118-0.346-0.279-0.862-0.429-1.265   C450.35,307.066,450.011,306.902,449.694,307.004z"
   fill="#1AA94B" />
</g>
<path
   id="path31"
   d="M485.5,301.104h-25.892V196.004h-7v124.88c0,16.813-13.679,30.492-30.492,30.492h-32.124  c-20.673,0-37.492,16.819-37.492,37.493v206.406h7V388.869c0-16.813,13.679-30.493,30.492-30.493h32.124  c20.673,0,37.492-16.819,37.492-37.492v-12.779H485.5V301.104z"
   fill="#1AA94B" />
<g
   id="g51">
	<circle
   id="circle33"
   r="42.979"
   cy="250.911"
   cx="456.109"
   fill="#1AA94B" />
	<g
   id="g49">
		<path
   id="path35"
   d="M480.057,229.741h-22.13v-1.602c0-1.004-0.813-1.818-1.818-1.818l0,0c-1.004,0-1.818,0.814-1.818,1.818    v1.602h-22.13c-2.09,0-3.801,1.71-3.801,3.801v29.211c0,2.091,1.711,3.801,3.801,3.801h22.13v6.929    c-6.805,0.092-12.061,0.693-12.061,1.422c0,0.792,27.759,0.792,27.759,0c0-0.729-5.256-1.33-12.062-1.422v-6.929h22.13    c2.091,0,3.801-1.71,3.801-3.801v-29.211C483.857,231.452,482.147,229.741,480.057,229.741z M481.034,262.753    c0,0.53-0.447,0.978-0.978,0.978H432.16c-0.529,0-0.978-0.447-0.978-0.978v-29.21c0-0.53,0.448-0.978,0.978-0.978h47.896    c0.53,0,0.978,0.447,0.978,0.978V262.753z"
   fill="#FFFFFF" />

	<text
   id="text1269"
   y="248.88979"
   x="436.07932"
   style="font-style:normal;font-weight:normal;font-size:46.696064px;line-height:1.25;font-family:sans-serif;letter-spacing:0px;word-spacing:0px;fill:#ffffff;fill-opacity:1;stroke:#f7f7f7;stroke-width:0.367;stroke-opacity:1;stroke-miterlimit:4;stroke-dasharray:none"
   xml:space="preserve"><tspan
     dx="0.2602703"
     dy="1.6917567"
     style="font-style:normal;font-variant:normal;font-weight:bold;font-stretch:normal;font-size:9.33921242px;line-height:1.25;font-family:Purisa;-inkscape-font-specification:'Purisa Bold';stroke-width:0.367;fill:#ffffff;fill-opacity:1;stroke:#f7f7f7;stroke-opacity:1;stroke-miterlimit:4;stroke-dasharray:none"
     y="248.88979"
     x="436.07932"
     id="tspan1267">E+1=mc<tspan
   id="tspan1273"
   style="font-size:6.07048798px;baseline-shift:super;stroke-width:0.367;fill:#ffffff;fill-opacity:1;stroke:#f7f7f7;stroke-opacity:1;stroke-miterlimit:4;stroke-dasharray:none">3</tspan></tspan></text>
</g>
</g>
<path
   id="path53"
   d="M223.691,220.8h-47.979c-14.645,0-26.559-11.914-26.559-26.558v-9.064h-7v9.064  c0,3.436,0.521,6.751,1.485,9.875h-29.677v7h32.763c5.825,9.967,16.634,16.683,28.988,16.683h47.979  c14.645,0,26.559,11.914,26.559,26.558v340.917h7V254.358C257.25,235.854,242.195,220.8,223.691,220.8z"
   fill="#2E7D96" />
<g
   id="g77">
	<circle
   id="circle55"
   r="40.871"
   cy="275.513"
   cx="141.655"
   fill="#EE9D21" />
	<g
   id="g75">
		<circle
   id="circle57"
   r="5.315"
   cy="275.513"
   cx="141.655"
   fill="#FFFFFF" />
		<circle
   id="circle59"
   r="2.978"
   cy="256.124"
   cx="161.044"
   fill="#FFFFFF" />
		<path
   id="path61"
   d="M164.08,258.13c-0.146,0.235-0.317,0.458-0.521,0.662c-0.671,0.672-1.539,1.023-2.418,1.065    c0.907,5.212-3.95,14.561-12.386,22.998c-10.144,10.143-21.611,15.12-25.614,11.116c-4.003-4.002,0.974-15.47,11.117-25.613    c8.468-8.468,17.855-13.33,23.056-12.378c0.051-0.863,0.403-1.712,1.062-2.372c0.227-0.227,0.477-0.413,0.741-0.567    c-5.995-0.556-16.331,5.036-25.735,14.441c-11.647,11.647-17.453,24.728-12.965,29.214c4.487,4.487,17.566-1.318,29.214-12.965    C158.966,274.396,164.542,264.145,164.08,258.13z"
   fill="#FFFFFF" />
		<g
   id="g67">
			<circle
   id="circle63"
   r="2.978"
   cy="267.922"
   cx="115.732"
   fill="#FFFFFF" />
			<path
   id="path65"
   d="M116.024,264.294c0.275,0.015,0.554,0.057,0.83,0.137c0.913,0.264,1.639,0.854,2.1,1.604     c4.127-3.31,14.66-3.567,26.12-0.249c13.778,3.989,23.672,11.631,22.097,17.069c-1.574,5.438-14.02,6.612-27.798,2.624     c-11.503-3.33-20.292-9.206-21.967-14.22c-0.781,0.371-1.694,0.473-2.59,0.213c-0.308-0.089-0.592-0.219-0.854-0.375     c2.406,5.519,12.292,11.873,25.067,15.571c15.822,4.581,30.08,3.353,31.844-2.743c1.765-6.095-9.632-14.75-25.454-19.331     C132.738,260.924,121.068,260.988,116.024,264.294z"
   fill="#FFFFFF" />
		</g>
		<g
   id="g73">
			<circle
   id="circle69"
   r="2.978"
   cy="301.769"
   cx="149.562"
   fill="#FFFFFF" />
			<path
   id="path71"
   d="M146.357,303.494c-0.138-0.24-0.253-0.497-0.336-0.772c-0.274-0.909-0.173-1.84,0.207-2.634     c-5.02-1.669-10.957-10.374-14.393-21.799c-4.132-13.736-3.087-26.193,2.335-27.824c5.42-1.631,13.166,8.183,17.298,21.918     c3.45,11.468,3.288,22.039-0.013,26.168c0.736,0.454,1.317,1.166,1.586,2.06c0.092,0.306,0.138,0.615,0.149,0.921     c3.327-5.018,3.295-16.769-0.537-29.505c-4.745-15.773-13.518-27.08-19.595-25.251c-6.077,1.829-7.156,16.098-2.411,31.872     C134.452,291.289,140.841,301.054,146.357,303.494z"
   fill="#FFFFFF" />
		</g>
	</g>
</g>
<path
   id="path79"
   d="M211.687,309.319c-0.764-0.158-2.929-0.607-3.98-0.825c-0.299-1.026-0.701-2.008-1.206-2.927  c0.591-0.899,1.8-2.741,2.228-3.392c0.574-0.875,0.654-1.467,0.153-1.968l-1.381-1.381l-1.381-1.381  c-0.5-0.501-1.093-0.42-1.967,0.153c-0.651,0.427-2.493,1.637-3.392,2.227c-0.919-0.505-1.9-0.907-2.926-1.206  c-0.218-1.051-0.667-3.216-0.826-3.98c-0.212-1.024-0.574-1.499-1.282-1.499h-1.954h-1.953c-0.708,0-1.07,0.475-1.283,1.499  c-0.158,0.764-0.607,2.93-0.825,3.98c-1.026,0.299-2.008,0.701-2.927,1.206c-0.899-0.59-2.741-1.8-3.392-2.227  c-0.875-0.574-1.466-0.654-1.967-0.153l-1.381,1.381l-1.381,1.381c-0.501,0.501-0.421,1.093,0.153,1.968  c0.427,0.65,1.637,2.492,2.227,3.392c-0.505,0.919-0.907,1.9-1.206,2.927c-1.051,0.218-3.216,0.667-3.98,0.825  c-1.024,0.213-1.5,0.574-1.5,1.282v1.954v1.953c0,0.708,0.476,1.07,1.5,1.282c0.764,0.158,2.93,0.607,3.98,0.825  c0.299,1.026,0.701,2.008,1.206,2.927c-0.59,0.899-1.8,2.741-2.227,3.393c-0.574,0.874-0.654,1.466-0.153,1.967l1.381,1.382  l1.381,1.381c0.501,0.501,1.093,0.421,1.967-0.153c0.651-0.428,2.493-1.637,3.392-2.228c0.919,0.506,1.9,0.907,2.927,1.206  c0.218,1.051,0.667,3.217,0.825,3.98c0.212,1.024,0.574,1.5,1.283,1.5h1.953h1.954c0.708,0,1.07-0.476,1.282-1.5  c0.159-0.764,0.607-2.93,0.826-3.98c1.026-0.299,2.007-0.7,2.926-1.206c0.899,0.591,2.741,1.8,3.392,2.228  c0.875,0.574,1.467,0.654,1.967,0.153l1.381-1.381l1.381-1.382c0.501-0.501,0.42-1.093-0.153-1.967  c-0.428-0.651-1.637-2.493-2.228-3.393c0.505-0.919,0.907-1.9,1.206-2.927c1.051-0.218,3.216-0.667,3.98-0.825  c1.024-0.212,1.5-0.574,1.5-1.282v-1.953v-1.954C213.186,309.894,212.71,309.532,211.687,309.319z M193.771,320.132  c-4.185,0-7.577-3.392-7.577-7.576s3.392-7.577,7.577-7.577s7.577,3.393,7.577,7.577S197.956,320.132,193.771,320.132z"
   fill="#E99F23" />
<path
   id="path81"
   d="M267.024,347.834h-69.753v-18.095h-7v18.095h-10.849c-18.896,0-34.269-15.373-34.269-34.269l-7,0.001  c0,22.755,18.513,41.268,41.269,41.268h87.602c18.896,0,34.269,15.373,34.269,34.269v206.173h7V389.103  C308.293,366.347,289.78,347.834,267.024,347.834z"
   fill="#E99F23" />
<circle
   id="circle83"
   r="40.635"
   cy="150.678"
   cx="146.781"
   fill="#2E7D96" />
<g
   id="g101">
	<polygon
   id="polygon85"
   points="146.686,154.837 115.821,142.214 146.686,128.456 177.55,142.214  "
   fill="#FFFFFF" />
	<path
   id="path87"
   d="M146.685,157.061l-16.867-7.152l0.128,9.293c1.009,1.764,8.117,6.149,16.739,6.149   c8.624,0,15.73-4.385,16.74-6.149l0.128-9.293L146.685,157.061z"
   fill="#FFFFFF" />
	<path
   id="path89"
   d="M176.232,161.121v-16.605l-0.959,0.406v16.199c0.15-0.054,0.311-0.084,0.48-0.084   C175.921,161.038,176.082,161.068,176.232,161.121z"
   fill="#FFFFFF" />
	<path
   id="path91"
   d="M175.753,166.515c-0.253,0-0.49-0.066-0.696-0.181c-0.217,0.248-0.355,0.524-0.355,0.558v5.333h2.104   v-5.333c0-0.034-0.138-0.311-0.355-0.559C176.243,166.449,176.005,166.515,175.753,166.515z"
   fill="#FFFFFF" />
	<path
   id="path93"
   d="M176.449,165.029c0.439-0.245,0.737-0.714,0.737-1.253c0-0.624-0.398-1.153-0.954-1.35   c-0.15-0.053-0.311-0.084-0.479-0.084c-0.169,0-0.33,0.031-0.48,0.084c-0.556,0.198-0.954,0.727-0.954,1.35   c0,0.539,0.298,1.008,0.738,1.253c0.207,0.115,0.443,0.181,0.696,0.181C176.005,165.21,176.243,165.144,176.449,165.029z    M176.071,162.693c0,0,0.527,0.092,0.774,0.606c0.248,0.514-0.007,0.984-0.007,0.984c-0.243,0.449,0.002-0.271-0.247-0.867   C176.342,162.82,175.568,162.604,176.071,162.693z"
   fill="#FFFFFF" />
	<g
   id="g99">
		<path
   id="path95"
   d="M124.085,163.593c1.01-1.01,1.529-2.223,1.403-3.086l-8.646-8.646c-0.008-0.007-0.016-0.014-0.023-0.021    c-0.009-0.009-0.017-0.018-0.025-0.026c-0.759-0.76-2.383-0.366-3.627,0.878c-1.244,1.244-1.638,2.868-0.878,3.627    c0.008,0.008,0.018,0.016,0.027,0.024c0.007,0.008,0.014,0.016,0.021,0.024l8.621,8.621    C121.823,165.137,123.059,164.62,124.085,163.593z M113.551,156.66c-0.484,0.067-0.895-0.071-1.165-0.366    c-0.325-0.368-0.411-0.957-0.236-1.617c0.265-0.998,1.2-1.909,2.086-2.03c0.287-0.04,0.533,0.032,0.69,0.215    c0.193,0.219,0.244,0.571,0.139,0.967c-0.16,0.604-0.724,1.153-1.258,1.227c-0.168,0.023-0.302-0.018-0.397-0.122    c-0.113-0.127-0.142-0.334-0.08-0.567c0.096-0.36,0.431-0.689,0.748-0.732c0.093-0.013,0.167,0.008,0.218,0.066    c0.062,0.07,0.077,0.187,0.042,0.321c-0.156,0.4-0.39,0.489-0.385,0.533c0.005,0.044,0.47-0.22,0.542-0.495    c0.05-0.187,0.022-0.357-0.076-0.468c-0.079-0.095-0.212-0.138-0.359-0.117c-0.383,0.052-0.773,0.428-0.886,0.854    c-0.076,0.287-0.034,0.547,0.114,0.714c0.13,0.142,0.317,0.205,0.538,0.174c0.595-0.082,1.221-0.687,1.396-1.349    c0.119-0.45,0.056-0.856-0.173-1.115c-0.192-0.218-0.489-0.314-0.832-0.267c-0.579,0.08-1.177,0.473-1.618,1.008    c0.176-0.261,0.385-0.518,0.627-0.76c0.287-0.287,0.593-0.526,0.903-0.719c0.024,0.038,0.598-0.193,0.837-0.279    c0,0,1.006-0.386,1.665,0.067c0.407,0.279,0.523,0.867,0.351,1.521C116.55,154.962,115.011,156.458,113.551,156.66z"
   fill="#E6E7E8" />
		<path
   id="path97"
   d="M136.113,171.132c-0.005-0.006-0.012-0.011-0.017-0.016c-0.004-0.005-0.009-0.011-0.014-0.015    l-7.365-7.365c0.125,0.863-0.394,2.076-1.403,3.085c-1.027,1.027-2.263,1.544-3.128,1.394l7.391,7.391    c0.004,0.005,0.01,0.009,0.016,0.014c0.005,0.005,0.01,0.012,0.016,0.017c0.759,0.759,2.383,0.366,3.626-0.878    C136.479,173.515,136.872,171.891,136.113,171.132z"
   fill="#E6E7E8" />
	</g>
</g>
<circle
   id="circle103"
   r="34.479"
   cy="116.64"
   cx="306.392"
   fill="#EF9B21" />
<g
   id="g127">
	<path
   id="path105"
   d="M310.487,259.62c-3.493,0-6.325,2.833-6.325,6.326s2.832,6.325,6.325,6.325s6.325-2.832,6.325-6.325   S313.98,259.62,310.487,259.62z M310.487,270.381c-2.45,0-4.437-1.986-4.437-4.436s1.986-4.436,4.437-4.436   s4.437,1.986,4.437,4.436S312.938,270.381,310.487,270.381z"
   fill="#EE9D21" />
	<path
   id="path107"
   d="M312.319,251.33h-3.665c-0.398,0-0.721,0.384-0.721,0.857v4.356c0,0.473,0.322,0.857,0.721,0.857h1.188   v1.38c0,0,0.374-0.035,0.645-0.035c0.27,0,0.644,0.035,0.644,0.035v-1.38h1.188c0.398,0,0.721-0.384,0.721-0.857v-4.356   C313.04,251.713,312.718,251.33,312.319,251.33z"
   fill="#EE9D21" />
	<g
   id="g121">
		<path
   id="path109"
   d="M300.381,300.095c0.365,0.111,0.437,0.415,0.157,0.677l-0.787,0.99c-0.278,0.261-0.578,0.171-0.665-0.202    l-0.106-1.261c-0.087-0.371,0.141-0.586,0.507-0.475L300.381,300.095z"
   fill="#EE9D21" />
		<path
   id="path111"
   d="M298.009,306.83c-0.02,0.065-0.101,0.1-0.18,0.075l0,0c-0.079-0.023-0.127-0.097-0.107-0.162l1.322-4.363    c0.02-0.066,0.101-0.1,0.18-0.076l0,0c0.079,0.024,0.127,0.098,0.107,0.163L298.009,306.83z"
   fill="#EE9D21" />
		<path
   id="path113"
   d="M306.487,271.744c-0.048,0.092-0.089,0.19-0.12,0.294l-7.069,23.333c-0.233,0.77-0.582,3.776,0.054,3.968    l1.41,0.428c0.636,0.192,2.014-2.501,2.247-3.271l7.069-23.333c0.003-0.01,0.005-0.02,0.008-0.03    c-1.314-0.082-2.519-0.566-3.495-1.33C306.557,271.782,306.521,271.764,306.487,271.744z"
   fill="#EE9D21" />
		<path
   id="path115"
   d="M321.676,295.372l-7.069-23.333c-0.031-0.104-0.072-0.202-0.119-0.294    c-0.034,0.021-0.07,0.039-0.104,0.059c-0.976,0.764-2.181,1.248-3.495,1.33c0.003,0.01,0.005,0.021,0.008,0.03l7.069,23.333    c0.233,0.77,1.611,3.464,2.247,3.271l1.41-0.428C322.258,299.147,321.909,296.142,321.676,295.372z"
   fill="#EE9D21" />
		<path
   id="path117"
   d="M320.593,300.095c-0.365,0.111-0.437,0.415-0.157,0.677l0.787,0.99c0.279,0.261,0.578,0.171,0.665-0.202    l0.106-1.261c0.086-0.371-0.142-0.586-0.508-0.475L320.593,300.095z"
   fill="#EE9D21" />
		<path
   id="path119"
   d="M322.965,306.83c0.02,0.065,0.101,0.1,0.18,0.075l0,0c0.079-0.023,0.128-0.097,0.107-0.162l-1.321-4.363    c-0.021-0.066-0.102-0.1-0.181-0.076l0,0c-0.079,0.024-0.127,0.098-0.107,0.163L322.965,306.83z"
   fill="#EE9D21" />
	</g>
	<path
   id="path123"
   d="M308.071,283.382c-0.073,0-0.133-0.055-0.133-0.123l0,0c0-0.068,0.06-0.123,0.133-0.123h4.832   c0.073,0,0.132,0.055,0.132,0.123l0,0c0,0.068-0.059,0.123-0.132,0.123H308.071z"
   fill="#EE9D21" />
	<path
   id="path125"
   d="M310.854,284.031c0,0.203-0.164,0.367-0.366,0.367l0,0c-0.203,0-0.367-0.165-0.367-0.367v-1.544   c0-0.203,0.164-0.367,0.367-0.367l0,0c0.202,0,0.366,0.164,0.366,0.367V284.031z"
   fill="#EE9D21" />
</g>
<g
   id="g135">
	<path
   id="path129"
   d="M364.1,133.461c-5.809-1.531-6.89,1.292-9.403,1.292s-3.596-2.99-9.403-1.292   c-2.148,0.512-7.361,3.405-6.374,13.848c0.984,10.42,10.827,15.952,15.777,11.066c4.95,4.886,14.793-0.646,15.778-11.066   C371.461,136.867,366.248,133.974,364.1,133.461z M341.024,147.175c-0.727-7.891,2.634-10.669,4.609-11.473   c-1.404,2.066-2.548,5.625-2.094,11.608c0.317,4.185,1.759,7.594,3.636,9.895C344.171,155.667,341.474,152.06,341.024,147.175z"
   fill="#116D38" />
	<path
   id="path131"
   d="M355.595,133.095c-0.425,0.921-1.574,0.562-1.399,0.13c2.163-2.949,0.113-7.241-2.539-10.232   c-0.33-0.372,1.807-0.827,1.807-0.827S357.557,128.845,355.595,133.095z"
   fill="#116D38" />
	<path
   id="path133"
   d="M365.369,126.993c0.139,0.342-1.976,3.748-4.212,4.651c-2.236,0.903-3.488-0.392-3.887-1.379   c-0.299-0.738-0.377-2.734,1.859-3.638C361.367,125.723,365.303,126.829,365.369,126.993z"
   fill="#116D38" />
</g>
<g
   id="g143">
	<path
   id="path137"
   d="M411.333,51.351l-1.761-5.531c-0.074-0.234-0.324-0.363-0.558-0.289l-1.045,0.333   c-0.233,0.074-0.363,0.324-0.288,0.557l0.162,0.509c-0.066,0.013-0.134,0.029-0.205,0.052l-18.219,5.801   c-1.074,0.341-1.667,1.49-1.325,2.564l0.206,0.648c0.342,1.074,1.49,1.667,2.564,1.325l18.218-5.8   c0.072-0.023,0.137-0.049,0.197-0.076l0.161,0.508c0.075,0.233,0.325,0.363,0.559,0.288l1.045-0.333   C411.278,51.833,411.407,51.584,411.333,51.351z M401.328,53.184l-10.381,3.305c-0.729,0.232-1.506-0.17-1.738-0.898l-0.139-0.439   c-0.232-0.728,0.17-1.505,0.898-1.737l18.136-3.071C408.336,51.072,402.056,52.953,401.328,53.184z"
   fill="#57A6D8" />
	<path
   id="path139"
   d="M415.901,73.84V60.825c0-0.114-0.008-0.22-0.02-0.32h0.809c0.372,0,0.674-0.301,0.674-0.672v-1.664   c0-0.372-0.302-0.673-0.674-0.673h-8.801c-0.372,0-0.673,0.301-0.673,0.673v1.664c0,0.371,0.301,0.672,0.673,0.672h0.81   c-0.013,0.101-0.02,0.206-0.02,0.32V73.84c-5.207,1.553-9.004,6.375-9.004,12.087c0,6.966,5.647,12.614,12.614,12.614   c6.966,0,12.614-5.648,12.614-12.614C424.904,80.215,421.107,75.393,415.901,73.84z M413.363,65.467   c0.755,0,1.367,0.612,1.367,1.367s-0.612,1.367-1.367,1.367c-0.756,0-1.367-0.612-1.367-1.367S412.607,65.467,413.363,65.467z    M413.287,74.58c0.755,0,1.367,0.612,1.367,1.368c0,0.755-0.612,1.367-1.367,1.367c-0.756,0-1.367-0.612-1.367-1.367   C411.92,75.192,412.531,74.58,413.287,74.58z M411.344,72.608c-0.522,0-0.946-0.424-0.946-0.946s0.424-0.947,0.946-0.947   c0.523,0,0.946,0.424,0.946,0.947S411.867,72.608,411.344,72.608z M410.948,61.19c0.536,0,0.972,0.435,0.972,0.972   s-0.436,0.971-0.972,0.971c-0.537,0-0.972-0.434-0.972-0.971S410.411,61.19,410.948,61.19z M413.199,96.513   c-5.729,0.495-10.773-3.746-11.269-9.475c-0.315-3.642,1.286-7.006,3.967-9.102c1.425-0.068,2.931,0.017,4.365,0.381   c4.176,1.062,6.813,1.199,8.975,0.063c1.909,1.706,3.198,4.112,3.437,6.863C423.169,90.972,418.928,96.017,413.199,96.513z"
   fill="#57A6D8" />
	<path
   id="path141"
   d="M412.811,54.828c0,0.583-0.472,1.055-1.055,1.055c-0.582,0-1.055-0.472-1.055-1.055   c0-0.583,1.055-2.262,1.055-2.262S412.811,54.246,412.811,54.828z"
   fill="#57A6D8" />
</g>
<path
   id="path145"
   d="M414.142,427.327l0.397,0.397l0.418,0.182l8.146,2.489l7.997,2.566l-2.529-7.888l-2.527-8.254l-0.098-0.502  l-0.397-0.397l-27.634-27.634l0.006-0.006l-4.51-4.51c-2.216-2.217-6.232-0.219-9.026,2.574l-0.001,0.001  c-1.432,1.432-2.505,3.026-3.021,4.489c-0.634,1.794-0.413,3.298,0.636,4.348l3.665,3.664h-0.001L414.142,427.327z M420.938,418.283  c0.636,0.636-0.141,2.097-1.192,3.148c-1.248,1.248-2.702,1.825-3.273,1.255l-26.479-26.479l4.435-4.435L420.938,418.283z   M387.354,398.848l1.795-1.794l26.51,26.51c0.56,0.56,0.023,1.761-0.831,2.758l-0.29-0.29L387.354,398.848z M429.251,431.113  l-4.807-1.544l3.265-3.265L429.251,431.113z M424.541,416.605c-0.003,0.003-0.006,0.005-0.009,0.008  c-0.11,0.095-0.225,0.184-0.339,0.27c-0.02,0.014-0.038,0.028-0.057,0.043c-0.115,0.083-0.23,0.161-0.346,0.233  c-0.017,0.01-0.032,0.02-0.048,0.029c-0.122,0.074-0.244,0.144-0.365,0.202c-0.001,0.001-0.003,0.001-0.005,0.002  c-0.645,0.314-1.245,0.39-1.6,0.035l-26.5-26.5l1.795-1.795L424.541,416.605z"
   fill="#5CA5D3" />
<g
   id="g155">
	<path
   id="path147"
   d="M324.107,116.506c0,10.073-8.166,18.239-18.239,18.239s-18.239-8.166-18.239-18.239   c0-10.072,8.166-18.239,18.239-18.239c8.551,0,15.724,5.885,17.698,13.825l5.563-0.952c-2.435-10.598-11.925-18.501-23.262-18.501   c-13.182,0-23.868,10.686-23.868,23.867s10.686,23.869,23.868,23.869c13.183,0,23.868-10.687,23.868-23.869   c0-0.866-0.048-1.721-0.138-2.563l-5.566,0.952C324.079,115.426,324.107,115.962,324.107,116.506z"
   fill="#FFFFFF" />
	<path
   id="path149"
   d="M317.14,116.506c0,6.226-5.046,11.272-11.271,11.272s-11.271-5.047-11.271-11.272   c0-6.224,5.046-11.271,11.271-11.271c5.101,0,9.407,3.389,10.798,8.037l3.448-0.59c-1.685-6.292-7.423-10.926-14.246-10.926   c-8.146,0-14.75,6.604-14.75,14.75c0,8.147,6.604,14.75,14.75,14.75s14.75-6.604,14.75-14.75c0-0.344-0.016-0.684-0.039-1.021   l-3.45,0.59C317.135,116.218,317.14,116.361,317.14,116.506z"
   fill="#FFFFFF" />
	<path
   id="path151"
   d="M309.321,111.947c-0.96-0.728-2.155-1.161-3.453-1.161c-3.159,0-5.719,2.562-5.719,5.72   c0,3.16,2.56,5.721,5.719,5.721c1.961,0,3.69-0.987,4.721-2.491l-7.367-2.725L309.321,111.947z"
   fill="#FFFFFF" />
	<polygon
   id="polygon153"
   points="336.64,109.367 331.6,110.229 329.396,111.958 310.009,115.273 309.64,113.113 305.392,116.64    310.57,118.555 310.201,116.396 329.588,113.08 332.256,114.066 337.296,113.205 337.167,112.451 334.866,111.601 336.753,110.034     "
   fill="#FFFFFF" />
</g>
<path
   id="path157"
   d="M446.716,401.807c-0.369-0.076-1.414-0.293-1.922-0.398c-0.144-0.495-0.338-0.969-0.582-1.412  c0.285-0.435,0.869-1.323,1.075-1.638c0.277-0.422,0.315-0.708,0.074-0.949l-0.667-0.667l-0.667-0.667  c-0.241-0.241-0.527-0.203-0.949,0.074c-0.314,0.206-1.203,0.79-1.638,1.075c-0.443-0.244-0.917-0.438-1.412-0.582  c-0.105-0.507-0.322-1.553-0.398-1.922c-0.103-0.494-0.277-0.724-0.619-0.724h-0.943h-0.942c-0.342,0-0.517,0.229-0.619,0.724  c-0.076,0.369-0.293,1.415-0.398,1.922c-0.495,0.145-0.969,0.338-1.413,0.582c-0.434-0.285-1.323-0.869-1.637-1.075  c-0.422-0.277-0.708-0.315-0.95-0.074l-0.666,0.667l-0.667,0.667c-0.242,0.241-0.203,0.527,0.074,0.949  c0.206,0.314,0.79,1.203,1.075,1.638c-0.244,0.443-0.438,0.917-0.582,1.412c-0.508,0.105-1.553,0.322-1.922,0.398  c-0.494,0.103-0.724,0.277-0.724,0.619v0.943v0.942c0,0.342,0.229,0.517,0.724,0.619c0.369,0.076,1.414,0.293,1.922,0.398  c0.144,0.495,0.338,0.969,0.582,1.413c-0.285,0.434-0.869,1.322-1.075,1.637c-0.277,0.422-0.316,0.708-0.074,0.95l0.667,0.666  l0.666,0.667c0.242,0.242,0.528,0.203,0.95-0.074c0.313-0.206,1.203-0.79,1.637-1.075c0.444,0.244,0.918,0.438,1.413,0.582  c0.105,0.508,0.322,1.553,0.398,1.922c0.103,0.494,0.277,0.724,0.619,0.724h0.942h0.943c0.342,0,0.517-0.229,0.619-0.724  c0.076-0.369,0.293-1.414,0.398-1.922c0.495-0.144,0.969-0.338,1.412-0.582c0.435,0.285,1.323,0.869,1.638,1.075  c0.422,0.277,0.708,0.316,0.949,0.074l0.667-0.667l0.667-0.666c0.241-0.242,0.203-0.528-0.074-0.95  c-0.206-0.314-0.79-1.203-1.075-1.637c0.244-0.444,0.438-0.918,0.582-1.413c0.508-0.105,1.553-0.322,1.922-0.398  c0.494-0.103,0.724-0.277,0.724-0.619v-0.942v-0.943C447.439,402.084,447.21,401.909,446.716,401.807z M438.067,407.025  c-2.02,0-3.657-1.637-3.657-3.656c0-2.021,1.638-3.657,3.657-3.657c2.021,0,3.657,1.637,3.657,3.657  C441.725,405.389,440.088,407.025,438.067,407.025z"
   fill="#5CA5D3" />
<path
   id="path159"
   d="M437.48,390.483c-0.203-0.13-0.781-0.497-1.062-0.676c0.026-0.33,0.018-0.659-0.027-0.98  c0.27-0.196,0.822-0.597,1.018-0.738c0.263-0.19,0.351-0.354,0.261-0.554l-0.249-0.552l-0.248-0.552  c-0.09-0.2-0.271-0.242-0.587-0.172c-0.235,0.053-0.902,0.2-1.228,0.272c-0.211-0.247-0.451-0.472-0.716-0.671  c0.053-0.328,0.16-1.005,0.198-1.244c0.051-0.32-0.002-0.497-0.207-0.575l-0.565-0.215l-0.566-0.214  c-0.205-0.078-0.362,0.02-0.536,0.293c-0.13,0.204-0.498,0.782-0.677,1.062c-0.33-0.025-0.658-0.018-0.98,0.028  c-0.195-0.27-0.597-0.822-0.738-1.019c-0.19-0.262-0.353-0.351-0.553-0.26l-0.552,0.248l-0.553,0.249  c-0.2,0.09-0.242,0.271-0.172,0.587c0.053,0.235,0.201,0.901,0.273,1.228c-0.248,0.21-0.472,0.45-0.671,0.715  c-0.329-0.052-1.006-0.16-1.244-0.198c-0.32-0.051-0.498,0.002-0.575,0.207l-0.215,0.566l-0.215,0.565  c-0.078,0.206,0.021,0.363,0.294,0.537c0.204,0.13,0.782,0.498,1.062,0.676c-0.026,0.331-0.018,0.659,0.028,0.98  c-0.271,0.196-0.823,0.597-1.019,0.738c-0.263,0.19-0.351,0.354-0.261,0.554l0.249,0.552l0.248,0.552  c0.09,0.2,0.271,0.242,0.587,0.172c0.235-0.052,0.902-0.2,1.228-0.272c0.211,0.247,0.451,0.472,0.716,0.671  c-0.053,0.328-0.16,1.005-0.198,1.244c-0.051,0.32,0.002,0.497,0.207,0.575l0.565,0.215l0.566,0.215  c0.205,0.077,0.362-0.021,0.536-0.294c0.13-0.204,0.498-0.782,0.677-1.062c0.33,0.026,0.659,0.018,0.98-0.028  c0.195,0.271,0.597,0.823,0.738,1.019c0.19,0.262,0.353,0.351,0.553,0.26l0.553-0.248l0.552-0.249c0.2-0.09,0.242-0.271,0.172-0.586  c-0.053-0.236-0.201-0.902-0.273-1.229c0.248-0.21,0.472-0.45,0.671-0.715c0.329,0.052,1.006,0.16,1.244,0.198  c0.32,0.051,0.498-0.002,0.576-0.207l0.214-0.566l0.215-0.565C437.853,390.814,437.754,390.658,437.48,390.483z M431.102,391.648  c-1.212-0.46-1.822-1.815-1.363-3.027c0.46-1.213,1.815-1.823,3.028-1.363s1.822,1.815,1.363,3.027  C433.67,391.498,432.314,392.108,431.102,391.648z"
   fill="#5CA5D3" />
<path
   id="path161"
   d="M262.352,86.48c-0.898-0.186-3.445-0.714-4.681-0.97c-0.351-1.207-0.824-2.361-1.418-3.442  c0.695-1.058,2.117-3.224,2.62-3.99c0.675-1.028,0.77-1.725,0.18-2.313l-1.624-1.625l-1.625-1.625  c-0.589-0.589-1.286-0.495-2.313,0.181c-0.766,0.502-2.932,1.925-3.99,2.619c-1.081-0.594-2.235-1.067-3.442-1.418  c-0.256-1.236-0.784-3.783-0.971-4.682c-0.25-1.204-0.675-1.763-1.508-1.763h-2.297h-2.297c-0.833,0-1.259,0.559-1.508,1.763  c-0.187,0.899-0.715,3.446-0.971,4.682c-1.207,0.351-2.361,0.824-3.442,1.418c-1.058-0.694-3.224-2.117-3.99-2.619  c-1.028-0.675-1.725-0.77-2.313-0.181l-1.625,1.625l-1.625,1.625c-0.589,0.589-0.495,1.285,0.181,2.313  c0.502,0.766,1.925,2.932,2.619,3.99c-0.594,1.081-1.067,2.235-1.418,3.442c-1.236,0.256-3.783,0.784-4.682,0.97  c-1.204,0.25-1.763,0.676-1.763,1.509v2.297v2.297c0,0.833,0.559,1.259,1.763,1.508c0.899,0.187,3.446,0.714,4.682,0.971  c0.351,1.207,0.824,2.361,1.418,3.442c-0.694,1.058-2.117,3.224-2.619,3.99c-0.675,1.028-0.77,1.724-0.181,2.313l1.625,1.625  l1.625,1.624c0.589,0.589,1.285,0.495,2.313-0.18c0.766-0.503,2.932-1.925,3.99-2.619c1.081,0.594,2.235,1.067,3.442,1.418  c0.256,1.236,0.784,3.783,0.971,4.681c0.25,1.205,0.675,1.764,1.508,1.764h2.297h2.297c0.833,0,1.259-0.559,1.508-1.764  c0.187-0.898,0.714-3.445,0.971-4.681c1.207-0.351,2.361-0.824,3.442-1.418c1.058,0.694,3.224,2.116,3.99,2.619  c1.028,0.675,1.724,0.77,2.313,0.18l1.625-1.624l1.624-1.625c0.589-0.589,0.495-1.286-0.18-2.313  c-0.502-0.766-1.925-2.932-2.62-3.99c0.595-1.081,1.067-2.235,1.418-3.442c1.236-0.256,3.783-0.784,4.681-0.971  c1.205-0.25,1.764-0.675,1.764-1.508v-2.297v-2.297C264.115,87.156,263.556,86.73,262.352,86.48z M241.282,99.197  c-4.921,0-8.91-3.989-8.91-8.911c0-4.921,3.989-8.911,8.91-8.911c4.921,0,8.911,3.99,8.911,8.911  C250.192,95.208,246.203,99.197,241.282,99.197z"
   fill="#17A94B" />
<path
   id="path163"
   d="M300.86,186.038c-0.728-0.151-2.791-0.579-3.792-0.786c-0.285-0.978-0.667-1.913-1.149-2.788  c0.562-0.857,1.715-2.612,2.122-3.232c0.547-0.833,0.624-1.397,0.146-1.874l-1.316-1.316l-1.316-1.316  c-0.477-0.477-1.041-0.4-1.874,0.146c-0.62,0.407-2.375,1.559-3.232,2.122c-0.875-0.481-1.81-0.864-2.788-1.149  c-0.208-1.001-0.635-3.064-0.786-3.792c-0.203-0.976-0.547-1.429-1.222-1.429h-1.861h-1.861c-0.675,0-1.02,0.453-1.222,1.429  c-0.151,0.728-0.579,2.791-0.786,3.792c-0.978,0.285-1.913,0.667-2.788,1.149c-0.857-0.562-2.612-1.715-3.232-2.122  c-0.833-0.547-1.397-0.624-1.874-0.146l-1.316,1.316l-1.316,1.316c-0.477,0.477-0.401,1.042,0.146,1.874  c0.407,0.62,1.56,2.375,2.122,3.232c-0.481,0.875-0.865,1.811-1.149,2.788c-1.001,0.208-3.064,0.635-3.792,0.786  c-0.976,0.203-1.429,0.547-1.429,1.222v1.861v1.861c0,0.675,0.453,1.02,1.429,1.222c0.728,0.151,2.791,0.579,3.792,0.787  c0.284,0.978,0.667,1.913,1.149,2.788c-0.562,0.857-1.715,2.612-2.122,3.232c-0.547,0.833-0.623,1.397-0.146,1.874l1.316,1.316  l1.316,1.316c0.477,0.477,1.041,0.401,1.874-0.146c0.62-0.407,2.375-1.56,3.232-2.122c0.875,0.481,1.81,0.865,2.788,1.149  c0.208,1.001,0.635,3.064,0.786,3.792c0.202,0.976,0.547,1.429,1.222,1.429h1.861h1.861c0.675,0,1.019-0.453,1.222-1.429  c0.151-0.728,0.579-2.791,0.786-3.792c0.978-0.284,1.913-0.667,2.788-1.149c0.857,0.562,2.612,1.715,3.232,2.122  c0.833,0.547,1.397,0.623,1.874,0.146l1.316-1.316l1.316-1.316c0.477-0.477,0.4-1.041-0.146-1.874  c-0.407-0.62-1.559-2.375-2.122-3.231c0.481-0.875,0.864-1.811,1.149-2.788c1.001-0.208,3.064-0.636,3.792-0.787  c0.976-0.202,1.429-0.547,1.429-1.222v-1.861v-1.861C302.289,186.585,301.836,186.241,300.86,186.038z M283.792,196.339  c-3.986,0-7.218-3.231-7.218-7.218c0-3.987,3.231-7.218,7.218-7.218c3.987,0,7.218,3.231,7.218,7.218  C291.011,193.107,287.779,196.339,283.792,196.339z"
   fill="#4570B2" />
<g
   id="g167">
	<path
   id="path165"
   d="M329.368,595.275h-7V374.616c0-21.391-17.402-38.794-38.793-38.794c-25.25,0-45.793-20.543-45.793-45.793   V109.368h7v180.662c0,21.391,17.402,38.793,38.793,38.793c25.25,0,45.793,20.543,45.793,45.794V595.275z"
   fill="#17A94B" />
</g>
<g
   id="g171">
	<path
   id="path169"
   d="M318.5,595.275h-7V424.106c0-13.981,11.375-25.356,25.356-25.356h9.853   c10.122,0,18.356-8.234,18.356-18.356V266.782c0-13.981,11.375-25.356,25.356-25.356c10.122,0,18.356-8.235,18.356-18.356V97h7   v126.069c0,13.981-11.375,25.356-25.356,25.356c-10.122,0-18.356,8.235-18.356,18.356v113.612   c0,13.981-11.375,25.356-25.356,25.356h-9.853c-10.122,0-18.356,8.234-18.356,18.356V595.275z"
   fill="#57A6D8" />
</g>
<g
   id="g175">
	<path
   id="path173"
   d="M287.293,595.275h-7v-196.54c0-13.437,10.932-24.368,24.368-24.368h14.083   c9.577,0,17.369-7.792,17.369-17.369V173.372c0-5.037,4.098-9.134,9.134-9.134h3.815c1.177,0,2.134-0.957,2.134-2.134v-4.211h7   v4.211c0,5.037-4.098,9.134-9.134,9.134h-3.815c-1.177,0-2.134,0.957-2.134,2.134v183.626c0,13.438-10.932,24.369-24.369,24.369   h-14.083c-9.577,0-17.368,7.791-17.368,17.368V595.275z"
   fill="#116D38" />
</g>
<g
   id="g179">
	<path
   id="path177"
   d="M276.79,595.275h-7V265.641c0-10.732,8.731-19.463,19.463-19.463h35.079   c6.873,0,12.464-5.591,12.464-12.463v-29.751c0-6.873-5.591-12.463-12.464-12.463c-10.731,0-19.463-8.731-19.463-19.463v-21.358h7   v21.358c0,6.873,5.591,12.463,12.463,12.463c10.732,0,19.464,8.731,19.464,19.463v29.751c0,10.732-8.731,19.463-19.464,19.463   h-35.079c-6.872,0-12.463,5.591-12.463,12.463V595.275z"
   fill="#EF9B21" />
</g>
<g
   id="g183">
	<path
   id="path181"
   d="M298.304,595.275h-7V453.294c0-12.768-10.387-23.154-23.153-23.154c-16.627,0-30.153-13.526-30.153-30.153   V245.231h42.296v-43.748h7v50.748h-42.296v147.755c0,12.767,10.387,23.153,23.153,23.153c16.627,0,30.153,13.527,30.153,30.154   V595.275z"
   fill="#4570B2" />
</g>
<g
   id="g189">
	<circle
   id="circle185"
   r="36.992"
   cy="214.312"
   cx="339.613"
   fill="#116D38" />
	<path
   id="path187"
   d="M354.108,189.121h-28.992c-0.837,0-1.519,0.681-1.519,1.52v47.343c0,0.838,0.682,1.519,1.519,1.519h28.992   c0.839,0,1.52-0.681,1.52-1.519v-47.343C355.628,189.802,354.947,189.121,354.108,189.121z M345.514,236.899h-11.801   c-0.671,0-1.214-0.542-1.214-1.212c0-0.669,0.543-1.212,1.214-1.212h11.801c0.669,0,1.212,0.543,1.212,1.212   C346.726,236.357,346.183,236.899,345.514,236.899z M353.255,230.649c0,0.62-0.581,1.122-1.295,1.122h-24.695   c-0.714,0-1.293-0.501-1.293-1.122v-34.938c0-0.62,0.579-1.121,1.293-1.121h24.695c0.714,0,1.295,0.501,1.295,1.121V230.649z    M351.922,193.367c-0.752,0-1.363-0.611-1.363-1.362c0-0.752,0.611-1.362,1.363-1.362s1.361,0.609,1.361,1.362   C353.283,192.756,352.674,193.367,351.922,193.367z"
   fill="#FFFFFF" />
</g>
<g
   id="g201">
	<circle
   id="circle191"
   r="42.575"
   cy="308.76"
   cx="378.799"
   fill="#E75627" />
	<g
   id="g199">
		<circle
   id="circle193"
   r="2.263"
   cy="277.776"
   cx="376.73"
   fill="#E6E7E8" />
		<path
   id="path195"
   d="M384.365,306.926v-20.062c0-0.176-0.011-0.339-0.029-0.493h1.247c0.572,0,1.038-0.464,1.038-1.037v-2.564    c0-0.573-0.466-1.037-1.038-1.037h-13.567c-0.573,0-1.037,0.464-1.037,1.037v2.564c0,0.573,0.464,1.037,1.037,1.037h1.248    c-0.019,0.154-0.03,0.317-0.03,0.493v20.062c-8.025,2.395-13.878,9.828-13.878,18.632c0,10.738,8.705,19.443,19.444,19.443    c10.738,0,19.443-8.705,19.443-19.443C398.243,316.754,392.391,309.32,384.365,306.926z M380.453,294.02    c1.164,0,2.107,0.943,2.107,2.108c0,1.164-0.943,2.107-2.107,2.107s-2.107-0.943-2.107-2.107    C378.346,294.963,379.289,294.02,380.453,294.02z M380.335,308.067c1.164,0,2.108,0.943,2.108,2.107s-0.944,2.107-2.108,2.107    s-2.107-0.943-2.107-2.107S379.171,308.067,380.335,308.067z M377.341,305.028c-0.806,0-1.459-0.653-1.459-1.459    s0.653-1.459,1.459-1.459s1.459,0.653,1.459,1.459S378.146,305.028,377.341,305.028z M376.73,287.427    c0.827,0,1.497,0.67,1.497,1.497c0,0.827-0.67,1.498-1.497,1.498s-1.497-0.67-1.497-1.498    C375.233,288.097,375.903,287.427,376.73,287.427z M380.218,342.074c-8.95,0.774-16.832-5.853-17.606-14.803    c-0.492-5.69,2.011-10.946,6.198-14.221c2.227-0.105,4.58,0.026,6.819,0.596c6.524,1.659,10.646,1.873,14.022,0.1    c2.982,2.664,4.997,6.424,5.369,10.723C395.795,333.418,389.167,341.301,380.218,342.074z"
   fill="#E6E7E8" />
		<circle
   id="circle197"
   r="1.498"
   cy="274.016"
   cx="381.063"
   fill="#E6E7E8" />
	</g>
</g>
<g
   id="g205">
	<path
   id="path203"
   d="M339.725,595.275h-7V408.954c0-13.668,11.119-24.787,24.787-24.787c9.809,0,17.788-7.979,17.788-17.787   v-16.379h7v16.379c0,13.668-11.119,24.787-24.787,24.787c-9.809,0-17.788,7.979-17.788,17.787V595.275z"
   fill="#E75627" />
</g>
<g
   id="g225">
	<circle
   id="circle207"
   r="40.084"
   cy="375.815"
   cx="182.865"
   fill="#E75627" />
	<g
   id="g223">
		<path
   id="path209"
   d="M166.562,378.075c-1.254-1.705-2.093-3.586-2.54-5.524l-8.327,17.326l18.922-6.233    C171.496,382.77,168.631,380.889,166.562,378.075z"
   fill="#FFFFFF" />
		<path
   id="path211"
   d="M208.568,397.729l-11.155-15.167c-0.535-0.728-1.44-1.02-2.266-0.812l-1.986-2.7    c6.412-5.793,7.517-15.615,2.288-22.725c-5.575-7.58-16.239-9.205-23.82-3.631c-5.649,4.155-7.988,11.138-6.506,17.563    c0.506,2.195,1.457,4.326,2.876,6.256c2.344,3.187,5.587,5.315,9.122,6.306c4.353,1.218,9.144,0.699,13.249-1.725l1.99,2.705    c-0.444,0.727-0.435,1.678,0.101,2.406l11.154,15.165c0.707,0.961,2.059,1.167,3.019,0.46l1.474-1.083    C209.069,400.04,209.274,398.688,208.568,397.729z M170.583,374.613c-4.526-6.153-3.207-14.811,2.947-19.336    s14.811-3.206,19.335,2.946c4.525,6.153,3.206,14.811-2.947,19.336C183.766,382.086,175.108,380.766,170.583,374.613z"
   fill="#FFFFFF" />
		<ellipse
   id="ellipse213"
   ry="0.376"
   rx="1.112"
   cy="391.683"
   cx="153.898"
   fill="#FFFFFF" />
		<path
   id="path215"
   d="M153.826,390.407c0.068,0.24,3.44-5.195,1.513-8.723c-1.926-3.525-2.546-5.108-0.138-7.86    c0,0-4.083,1.789-1.568,6.674C156.147,385.384,154.754,387.688,153.826,390.407z"
   fill="#FFFFFF" />
		<path
   id="path217"
   d="M153.132,380.014c-0.04-0.14-1.999,3.018-0.879,5.066c1.119,2.049,1.479,2.968,0.08,4.567    c0,0,2.372-1.039,0.911-3.878C151.783,382.933,152.592,381.594,153.132,380.014z"
   fill="#FFFFFF" />
		<path
   id="path219"
   d="M155.614,369.985c0.04-0.14,1.999,3.018,0.879,5.066s-1.479,2.968-0.081,4.566    c0,0-2.372-1.039-0.911-3.877C156.963,372.903,156.154,371.565,155.614,369.985z"
   fill="#FFFFFF" />
		<path
   id="path221"
   d="M181.72,357.047c5.645,0,10.402,3.679,11.88,8.703c-0.426-6.403-5.58-11.462-11.88-11.462    s-11.454,5.059-11.88,11.462C171.317,360.726,176.075,357.047,181.72,357.047z"
   fill="#FFFFFF" />
	</g>
</g>
<g
   id="g229">
	<path
   id="path227"
   d="M266.75,595.28h-7V470.298c0-16.431-13.367-29.798-29.798-29.798h-13.789   c-20.29,0-36.798-16.508-36.798-36.798h7c0,16.431,13.367,29.798,29.798,29.798h13.789c20.29,0,36.798,16.508,36.798,36.798V595.28   z"
   fill="#E75627" />
</g>
<g
   id="g257">
	<circle
   id="circle231"
   r="36.717"
   cy="354.876"
   cx="466.952"
   fill="#5CA5D3" />
	<g
   id="g255">
		<g
   id="g247">
			<path
   id="path233"
   d="M466.952,328.16c-10.374,0-18.784,8.411-18.784,18.784c0,6.571,3.674,12.855,8.487,15.708     c4.812,2.854,3.711,8.655,5.311,8.655h4.986h4.986c1.6,0,0.498-5.802,5.312-8.655c4.813-2.853,8.486-9.137,8.486-15.708     C485.736,336.571,477.326,328.16,466.952,328.16z M476.098,361.207c-4.275,2.533-3.216,7.687-4.636,7.687h-4.51h-4.509     c-1.422,0-0.361-5.153-4.636-7.687c-4.275-2.533-7.538-8.114-7.538-13.95c0-9.213,7.47-16.683,16.683-16.683     s16.683,7.47,16.683,16.683C483.635,353.093,480.372,358.674,476.098,361.207z"
   fill="#FFFFFF" />
			<g
   id="g239">
				<path
   id="path235"
   d="M464.599,354.89c0-0.833-0.677-1.508-1.509-1.508c-0.834,0-1.509,0.675-1.509,1.508      c0,0.602,0.353,1.119,0.862,1.361v12.904c0,0.287,0.289,0.519,0.646,0.519c0.356,0,0.645-0.231,0.645-0.519v-12.904      C464.245,356.009,464.599,355.492,464.599,354.89z"
   fill="#FFFFFF" />
				<path
   id="path237"
   d="M472.323,354.89c0-0.833-0.675-1.508-1.509-1.508c-0.833,0-1.508,0.675-1.508,1.508      c0,0.602,0.353,1.119,0.862,1.361v12.904c0,0.287,0.289,0.519,0.646,0.519c0.356,0,0.645-0.231,0.645-0.519v-12.904      C471.971,356.009,472.323,355.492,472.323,354.89z"
   fill="#FFFFFF" />
			</g>
			<g
   id="g243">
				<polygon
   id="polygon241"
   points="470.763,354.847 470.595,351.558 473.301,350.484 470.745,348.83 472.943,346.853       470.096,346.632 470.533,343.86 468.262,345.632 466.952,342.945 465.65,345.632 463.4,343.859 463.857,346.603 461.03,346.856       463.263,348.782 460.721,350.459 463.426,351.527 463.331,354.842 462.848,354.827 462.934,351.853 459.68,350.567       462.464,348.731 459.852,346.478 463.296,346.168 462.719,342.707 465.479,344.881 466.951,341.841 468.435,344.885       471.202,342.728 470.654,346.19 474.104,346.458 471.537,348.768 474.349,350.587 471.094,351.879 471.246,354.822     "
   fill="#FFFFFF" />
			</g>
			<path
   id="path245"
   d="M470.853,335.603c4.963,1.794,8.604,5.346,10.006,9.219c-0.105-4.851-3.654-9.604-9.148-11.591     s-11.263-0.601-14.445,3.062C460.819,334.211,465.89,333.809,470.853,335.603z"
   fill="#FFFFFF" />
		</g>
		<path
   id="path249"
   d="M472.57,374.539h-11.236c-0.368,0-0.669-0.301-0.669-0.669v-0.476c0-0.368,0.301-0.669,0.669-0.669h11.236    c0.368,0,0.669,0.301,0.669,0.669v0.476C473.239,374.238,472.938,374.539,472.57,374.539z"
   fill="#FFFFFF" />
		<path
   id="path251"
   d="M471.481,378.065h-9.059c-0.368,0-0.669-0.301-0.669-0.669v-0.476c0-0.368,0.301-0.669,0.669-0.669h9.059    c0.368,0,0.669,0.301,0.669,0.669v0.476C472.15,377.765,471.85,378.065,471.481,378.065z"
   fill="#FFFFFF" />
		<path
   id="path253"
   d="M470.107,381.593h-6.31c-0.368,0-0.67-0.302-0.67-0.67v-0.476c0-0.367,0.302-0.669,0.67-0.669h6.31    c0.367,0,0.669,0.302,0.669,0.669v0.476C470.776,381.291,470.475,381.593,470.107,381.593z"
   fill="#FFFFFF" />
	</g>
</g>
<g
   id="g261">
	<path
   id="path259"
   d="M349.5,595.275h-7V478.732c0-26.491,21.552-48.043,48.042-48.043h31.93   c22.631,0,41.043-18.411,41.043-41.042h7c0,26.49-21.552,48.042-48.043,48.042h-31.93c-22.631,0-41.042,18.412-41.042,41.043   V595.275z"
   fill="#5CA5D3" />
</g>
<g
   id="g273">
	<circle
   id="circle263"
   r="35.674"
   cy="149.794"
   cx="412.278"
   fill="#57A6D8" />
	<g
   id="g271">
		<path
   id="path265"
   d="M402.779,128.256h-10.705c-0.451,0-0.818,0.366-0.818,0.818v2.023c0,0.452,0.367,0.818,0.818,0.818h0.984    c-0.015,0.122-0.023,0.25-0.023,0.389v35.263c0,2.079,1.686,3.765,3.765,3.765h1.255c2.078,0,3.765-1.686,3.765-3.765v-35.263    c0-0.139-0.009-0.267-0.024-0.389h0.984c0.452,0,0.818-0.367,0.818-0.818v-2.023C403.598,128.622,403.231,128.256,402.779,128.256    z M400.587,167.466c0,1.496-1.213,2.708-2.709,2.708h-0.902c-1.495,0-2.709-1.213-2.709-2.708v-21.339    c0-1.496,1.214-2.709,2.709-2.709h0.902c1.496,0,2.709,1.213,2.709,2.709V167.466z"
   fill="#E6E7E8" />
		<path
   id="path267"
   d="M417.631,128.256h-10.705c-0.452,0-0.818,0.366-0.818,0.818v2.023c0,0.452,0.366,0.818,0.818,0.818h0.984    c-0.015,0.122-0.023,0.25-0.023,0.389v35.263c0,2.079,1.686,3.765,3.765,3.765h1.255c2.079,0,3.764-1.686,3.764-3.765v-35.263    c0-0.139-0.009-0.267-0.022-0.389h0.983c0.452,0,0.818-0.367,0.818-0.818v-2.023C418.449,128.622,418.083,128.256,417.631,128.256    z M415.438,167.466c0,1.496-1.213,2.708-2.709,2.708h-0.902c-1.495,0-2.708-1.213-2.708-2.708v-14.335    c0-1.496,1.213-2.708,2.708-2.708h0.902c1.496,0,2.709,1.212,2.709,2.708V167.466z"
   fill="#E6E7E8" />
		<path
   id="path269"
   d="M432.482,128.256h-10.705c-0.452,0-0.818,0.366-0.818,0.818v2.023c0,0.452,0.366,0.818,0.818,0.818h0.984    c-0.015,0.122-0.023,0.25-0.023,0.389v35.263c0,2.079,1.686,3.765,3.764,3.765h1.255c2.079,0,3.765-1.686,3.765-3.765v-35.263    c0-0.139-0.009-0.267-0.023-0.389h0.984c0.452,0,0.818-0.367,0.818-0.818v-2.023C433.301,128.622,432.935,128.256,432.482,128.256    z M430.29,167.466c0,1.496-1.213,2.708-2.709,2.708h-0.902c-1.496,0-2.709-1.213-2.709-2.708v-25.26    c0-1.496,1.213-2.709,2.709-2.709h0.902c1.496,0,2.709,1.213,2.709,2.709V167.466z"
   fill="#E6E7E8" />
	</g>
</g>
<g
   id="g279">
	<path
   id="path275"
   d="M304.142,330.008c-1.241-2.988-0.603-6.203,1.908-8.324c2.258-1.908,5.07-2.55,7.843-3.307   c3.097-0.847,5.686-3.477,6.563-6.549c0.406,2.865-0.012,5.954-0.513,8.795c-0.457,2.595-1.133,5.203-2.3,7.577   c-0.916,1.863-2.209,3.704-4.111,4.657c-2.113,1.059-4.504,0.664-6.577-0.289c-0.474-0.217-1.036-0.055-1.314,0.385   c-0.678,1.067-2.208,3.165-3.74,2.716c-1.448-0.425-1.776-2.8-0.331-3.429c0.562-0.244,1.401-0.586,2.053-0.892   C304.127,331.112,304.355,330.523,304.142,330.008z"
   fill="#1AA94B" />
	<path
   id="path277"
   d="M302.142,330.616c0.984-1.423,1.012-3.176-0.062-4.566c-0.966-1.251-2.364-1.902-3.729-2.61   c-1.524-0.79-2.583-2.456-2.696-4.161c-0.535,1.453-0.663,3.115-0.72,4.656c-0.052,1.408,0.008,2.848,0.352,4.22   c0.269,1.077,0.739,2.185,1.626,2.896c0.985,0.791,2.28,0.854,3.471,0.588c0.271-0.061,0.547,0.088,0.644,0.349   c0.234,0.635,0.799,1.903,1.65,1.84c0.805-0.06,1.243-1.264,0.558-1.755c-0.266-0.19-0.667-0.464-0.973-0.697   C302.025,331.195,301.973,330.861,302.142,330.616z"
   fill="#1AA94B" />
</g>
<g
   id="g285">
	<path
   id="path281"
   d="M215.6,430.246c-1.031-2.484-0.5-5.156,1.586-6.919c1.877-1.586,4.214-2.119,6.519-2.749   c2.575-0.703,4.727-2.889,5.456-5.442c0.338,2.382-0.009,4.949-0.426,7.31c-0.38,2.157-0.942,4.325-1.912,6.298   c-0.761,1.549-1.836,3.079-3.417,3.871c-1.756,0.88-3.743,0.553-5.467-0.24c-0.393-0.181-0.861-0.045-1.092,0.32   c-0.562,0.887-1.834,2.631-3.108,2.257c-1.204-0.353-1.477-2.327-0.275-2.85c0.466-0.203,1.165-0.486,1.707-0.741   C215.588,431.164,215.777,430.674,215.6,430.246z"
   fill="#E75627" />
	<path
   id="path283"
   d="M213.938,430.752c0.818-1.184,0.841-2.64-0.052-3.796c-0.803-1.04-1.965-1.581-3.099-2.169   c-1.267-0.657-2.146-2.042-2.241-3.459c-0.444,1.208-0.551,2.589-0.598,3.87c-0.043,1.17,0.006,2.366,0.292,3.507   c0.224,0.896,0.614,1.816,1.352,2.408c0.819,0.657,1.895,0.709,2.885,0.488c0.226-0.051,0.456,0.073,0.536,0.29   c0.194,0.527,0.664,1.581,1.371,1.529c0.669-0.05,1.034-1.051,0.464-1.459c-0.221-0.158-0.555-0.386-0.809-0.579   C213.841,431.232,213.797,430.955,213.938,430.752z"
   fill="#E75627" />
</g>
<g
   id="g291">
	<path
   id="path287"
   d="M380.652,428.384c1.201-2.892,0.583-6.002-1.846-8.054c-2.185-1.846-4.905-2.466-7.587-3.199   c-2.996-0.818-5.501-3.362-6.35-6.335c-0.394,2.772,0.011,5.761,0.496,8.508c0.442,2.511,1.096,5.034,2.225,7.331   c0.886,1.802,2.138,3.583,3.978,4.505c2.044,1.024,4.356,0.643,6.362-0.279c0.458-0.21,1.002-0.053,1.271,0.372   c0.655,1.033,2.136,3.062,3.618,2.627c1.4-0.411,1.719-2.708,0.32-3.316c-0.543-0.236-1.356-0.566-1.986-0.862   C380.666,429.451,380.445,428.882,380.652,428.384z"
   fill="#5CA5D3" />
	<path
   id="path289"
   d="M382.587,428.972c-0.952-1.377-0.979-3.072,0.061-4.418c0.935-1.21,2.287-1.84,3.606-2.524   c1.475-0.765,2.499-2.376,2.608-4.025c0.517,1.405,0.642,3.013,0.696,4.504c0.051,1.362-0.008,2.755-0.34,4.082   c-0.26,1.042-0.715,2.113-1.573,2.803c-0.953,0.765-2.205,0.825-3.357,0.568c-0.263-0.059-0.53,0.085-0.623,0.338   c-0.227,0.613-0.772,1.84-1.597,1.779c-0.778-0.058-1.202-1.223-0.54-1.698c0.258-0.185,0.646-0.448,0.941-0.674   C382.699,429.531,382.751,429.209,382.587,428.972z"
   fill="#5CA5D3" />
</g>
<g
   id="g297">
	<path
   id="path293"
   d="M221.236,344.396c-1.502-2.231-1.509-4.956,0.188-7.097c1.526-1.925,3.713-2.909,5.847-3.981   c2.385-1.198,4.063-3.766,4.273-6.413c0.802,2.269,0.968,4.854,1.026,7.25c0.053,2.189-0.069,4.426-0.63,6.552   c-0.44,1.668-1.192,3.381-2.586,4.47c-1.547,1.209-3.56,1.28-5.406,0.844c-0.421-0.1-0.853,0.125-1.008,0.529   c-0.376,0.98-1.279,2.941-2.601,2.826c-1.25-0.108-1.907-1.989-0.833-2.739c0.417-0.291,1.046-0.707,1.526-1.062   C221.406,345.297,221.495,344.779,221.236,344.396z"
   fill="#E99F23" />
	<path
   id="path295"
   d="M219.707,345.219c0.568-1.321,0.303-2.754-0.801-3.711c-0.992-0.86-2.239-1.162-3.466-1.515   c-1.372-0.394-2.507-1.577-2.879-2.947c-0.197,1.271-0.029,2.646,0.177,3.911c0.188,1.156,0.474,2.319,0.979,3.381   c0.396,0.833,0.96,1.659,1.8,2.094c0.933,0.482,1.998,0.32,2.925-0.091c0.211-0.095,0.46-0.019,0.582,0.179   c0.294,0.478,0.963,1.419,1.646,1.228c0.646-0.181,0.805-1.233,0.167-1.521c-0.249-0.112-0.62-0.269-0.908-0.408   C219.707,345.709,219.609,345.446,219.707,345.219z"
   fill="#E99F23" />
</g>
<g
   id="g303">
	<path
   id="path299"
   d="M179.775,215.574c-2.055-3.885-1.598-8.312,1.53-11.498c2.812-2.864,6.534-4.087,10.187-5.461   c4.082-1.535,7.25-5.418,8.048-9.684c0.912,3.824,0.736,8.054,0.418,11.957c-0.292,3.567-0.875,7.18-2.154,10.537   c-1.003,2.635-2.52,5.288-4.972,6.817c-2.723,1.697-6.005,1.467-8.93,0.439c-0.667-0.234-1.407,0.057-1.729,0.687   c-0.781,1.528-2.585,4.558-4.714,4.144c-2.012-0.392-2.756-3.561-0.881-4.594c0.728-0.401,1.822-0.969,2.664-1.465   C179.895,217.068,180.129,216.243,179.775,215.574z"
   fill="#2E7D96" />
	<path
   id="path301"
   d="M177.148,216.648c1.151-2.049,0.967-4.422-0.661-6.167c-1.464-1.569-3.437-2.273-5.371-3.058   c-2.161-0.876-3.802-2.995-4.17-5.286c-0.54,2.032-0.503,4.295-0.386,6.386c0.107,1.911,0.37,3.85,1.007,5.662   c0.5,1.422,1.275,2.861,2.565,3.712c1.432,0.944,3.19,0.866,4.767,0.356c0.36-0.116,0.751,0.049,0.915,0.39   c0.396,0.828,1.32,2.472,2.463,2.279c1.081-0.182,1.521-1.866,0.534-2.443c-0.384-0.225-0.961-0.543-1.404-0.819   C177.064,217.445,176.95,217.001,177.148,216.648z"
   fill="#2E7D96" />
</g>
<g
   id="g309">
	<path
   id="path305"
   d="M136.075,330.339c-3.739-1.41-7.681-0.491-10.197,2.693c-2.262,2.864-2.94,6.361-3.762,9.813   c-0.918,3.857-4.059,7.159-7.815,8.367c3.554,0.386,7.349-0.257,10.833-0.99c3.184-0.67,6.376-1.61,9.258-3.146   c2.262-1.206,4.482-2.877,5.581-5.264c1.22-2.65,0.637-5.585-0.624-8.105c-0.288-0.575-0.109-1.275,0.422-1.638   c1.29-0.879,3.816-2.853,3.199-4.726c-0.583-1.771-3.527-2.079-4.245-0.27c-0.279,0.702-0.666,1.754-1.017,2.57   C137.437,330.276,136.719,330.582,136.075,330.339z"
   fill="#EE9D21" />
	<path
   id="path307"
   d="M136.744,327.847c-1.716,1.273-3.878,1.378-5.639,0.108c-1.583-1.142-2.443-2.841-3.372-4.495   c-1.038-1.85-3.136-3.088-5.245-3.158c1.771-0.719,3.817-0.944,5.716-1.078c1.736-0.121,3.515-0.105,5.222,0.262   c1.34,0.289,2.727,0.823,3.641,1.89c1.016,1.185,1.146,2.779,0.867,4.26c-0.063,0.338,0.13,0.673,0.457,0.781   c0.792,0.263,2.38,0.907,2.337,1.961c-0.041,0.996-1.509,1.586-2.144,0.761c-0.246-0.32-0.6-0.805-0.899-1.173   C137.453,327.68,137.039,327.628,136.744,327.847z"
   fill="#EE9D21" />
</g>
<g
   id="g315">
	<path
   id="path311"
   d="M469.979,411.259c2.544,3.082,6.421,4.244,10.187,2.73c3.387-1.361,5.713-4.06,8.142-6.646   c2.714-2.891,7.08-4.196,10.94-3.377c-2.893-2.101-6.505-3.43-9.894-4.524c-3.096-1.001-6.333-1.771-9.598-1.87   c-2.562-0.078-5.319,0.27-7.459,1.794c-2.375,1.693-3.327,4.53-3.486,7.344c-0.036,0.643-0.538,1.162-1.18,1.212   c-1.556,0.122-4.729,0.579-5.124,2.512c-0.374,1.825,2.027,3.557,3.549,2.343c0.591-0.472,1.45-1.191,2.16-1.725   C468.767,410.637,469.541,410.729,469.979,411.259z"
   fill="#5CA5D3" />
	<path
   id="path313"
   d="M468.16,413.09c2.122-0.252,4.05,0.731,4.947,2.707c0.807,1.777,0.709,3.68,0.692,5.577   c-0.019,2.12,1.187,4.237,2.982,5.347c-1.895-0.256-3.782-1.076-5.497-1.905c-1.566-0.757-3.103-1.654-4.401-2.822   c-1.02-0.916-1.957-2.069-2.221-3.449c-0.293-1.532,0.387-2.98,1.365-4.127c0.223-0.262,0.221-0.647-0.009-0.904   c-0.557-0.622-1.614-1.971-1.054-2.863c0.53-0.845,2.098-0.626,2.238,0.405c0.054,0.4,0.12,0.995,0.197,1.464   C467.462,412.882,467.795,413.133,468.16,413.09z"
   fill="#5CA5D3" />
</g>
<g
   id="g321">
	<path
   id="path317"
   d="M403.313,202.383c-3.087,2.537-7.115,2.935-10.521,0.727c-3.062-1.984-4.829-5.078-6.717-8.083   c-2.11-3.357-6.146-5.474-10.091-5.41c3.241-1.507,7.041-2.12,10.577-2.545c3.23-0.389,6.555-0.525,9.778,0.003   c2.529,0.415,5.169,1.284,6.977,3.19c2.007,2.117,2.398,5.083,2.015,7.875c-0.088,0.637,0.307,1.244,0.926,1.416   c1.504,0.417,4.53,1.475,4.549,3.446c0.017,1.864-2.672,3.103-3.933,1.62c-0.49-0.576-1.195-1.447-1.789-2.107   C404.623,202.005,403.845,201.946,403.313,202.383z"
   fill="#5CA5D3" />
	<path
   id="path319"
   d="M404.748,204.528c-2.034-0.653-4.115-0.058-5.374,1.71c-1.132,1.59-1.401,3.476-1.748,5.341   c-0.388,2.084-1.978,3.932-3.951,4.676c1.908,0.111,3.918-0.333,5.759-0.817c1.683-0.443,3.363-1.03,4.861-1.927   c1.176-0.704,2.317-1.656,2.841-2.96c0.58-1.448,0.191-3-0.55-4.312c-0.169-0.299-0.092-0.678,0.182-0.886   c0.666-0.504,1.963-1.625,1.583-2.609c-0.358-0.93-1.938-1.017-2.273-0.031c-0.131,0.383-0.31,0.955-0.476,1.399   C405.474,204.458,405.099,204.641,404.748,204.528z"
   fill="#5CA5D3" />
</g>
<g
   id="g327">
	<rect
   id="rect323"
   height="49.795"
   width="1.552"
   fill="#2E7D96"
   y="184.261"
   x="113.051" />
	<path
   id="path325"
   d="M112.333,234.056h-6.342v-1.331c0,0.133,0.067,0.241,0.151,0.241h1.938c0.083,0,0.151-0.108,0.151-0.241   c0-0.133-0.068-0.241-0.151-0.241h-1.938c-0.083,0-0.151,0.107-0.151,0.241v-1.571c0,0.132,0.052,0.24,0.118,0.24h3.035   c0.065,0,0.118-0.108,0.118-0.24c0-0.133-0.053-0.241-0.118-0.241h-3.035c-0.065,0-0.118,0.107-0.118,0.241v-1.571   c0,0.133,0.067,0.24,0.151,0.24h1.938c0.083,0,0.151-0.107,0.151-0.24s-0.068-0.241-0.151-0.241h-1.938   c-0.083,0-0.151,0.107-0.151,0.241v-1.572c0,0.133,0.052,0.241,0.118,0.241h3.035c0.065,0,0.118-0.107,0.118-0.241   c0-0.132-0.053-0.24-0.118-0.24h-3.035c-0.065,0-0.118,0.107-0.118,0.24v-1.571c0,0.133,0.067,0.241,0.151,0.241h1.938   c0.083,0,0.151-0.108,0.151-0.241s-0.068-0.24-0.151-0.24h-1.938c-0.083,0-0.151,0.107-0.151,0.24v-1.571   c0,0.133,0.052,0.241,0.118,0.241h3.035c0.065,0,0.118-0.108,0.118-0.241c0-0.132-0.053-0.24-0.118-0.24h-3.035   c-0.065,0-0.118,0.108-0.118,0.24v-1.571c0,0.133,0.067,0.241,0.151,0.241h1.938c0.083,0,0.151-0.107,0.151-0.241   c0-0.133-0.068-0.241-0.151-0.241h-1.938c-0.083,0-0.151,0.108-0.151,0.241v-1.571c0,0.133,0.052,0.241,0.118,0.241h3.035   c0.065,0,0.118-0.108,0.118-0.241s-0.053-0.241-0.118-0.241h-3.035c-0.065,0-0.118,0.108-0.118,0.241v-1.571   c0,0.133,0.067,0.24,0.151,0.24h1.938c0.083,0,0.151-0.107,0.151-0.24c0-0.133-0.068-0.241-0.151-0.241h-1.938   c-0.083,0-0.151,0.107-0.151,0.241v-1.571c0,0.133,0.052,0.24,0.118,0.24h3.035c0.065,0,0.118-0.107,0.118-0.24   s-0.053-0.241-0.118-0.241h-3.035c-0.065,0-0.118,0.107-0.118,0.241v-1.571c0,0.133,0.067,0.241,0.151,0.241h1.938   c0.083,0,0.151-0.107,0.151-0.241c0-0.132-0.068-0.24-0.151-0.24h-1.938c-0.083,0-0.151,0.108-0.151,0.24v-1.571   c0,0.133,0.052,0.241,0.118,0.241h3.035c0.065,0,0.118-0.108,0.118-0.241c0-0.133-0.053-0.241-0.118-0.241h-3.035   c-0.065,0-0.118,0.107-0.118,0.241v-1.571c0,0.133,0.067,0.241,0.151,0.241h1.938c0.083,0,0.151-0.107,0.151-0.241   c0-0.133-0.068-0.24-0.151-0.24h-1.938c-0.083,0-0.151,0.107-0.151,0.24v-1.571c0,0.133,0.052,0.241,0.118,0.241h3.035   c0.065,0,0.118-0.107,0.118-0.241c0-0.133-0.053-0.24-0.118-0.24h-3.035c-0.065,0-0.118,0.107-0.118,0.24v-1.571   c0,0.133,0.067,0.241,0.151,0.241h1.938c0.083,0,0.151-0.108,0.151-0.241s-0.068-0.241-0.151-0.241h-1.938   c-0.083,0-0.151,0.108-0.151,0.241v-1.571c0,0.133,0.052,0.241,0.118,0.241h3.035c0.065,0,0.118-0.108,0.118-0.241   c0-0.132-0.053-0.241-0.118-0.241h-3.035c-0.065,0-0.118,0.108-0.118,0.241v-1.571c0,0.132,0.067,0.241,0.151,0.241h1.938   c0.083,0,0.151-0.108,0.151-0.241c0-0.133-0.068-0.241-0.151-0.241h-1.938c-0.083,0-0.151,0.108-0.151,0.241v-1.571   c0,0.133,0.052,0.24,0.118,0.24h3.035c0.065,0,0.118-0.107,0.118-0.24c0-0.133-0.053-0.241-0.118-0.241h-3.035   c-0.065,0-0.118,0.108-0.118,0.241v-1.571c0,0.133,0.067,0.24,0.151,0.24h1.938c0.083,0,0.151-0.107,0.151-0.24   c0-0.133-0.068-0.24-0.151-0.24h-1.938c-0.083,0-0.151,0.107-0.151,0.24v-1.571c0,0.133,0.052,0.241,0.118,0.241h3.035   c0.065,0,0.118-0.108,0.118-0.241c0-0.133-0.053-0.241-0.118-0.241h-3.035c-0.065,0-0.118,0.107-0.118,0.241v-1.572   c0,0.133,0.067,0.241,0.151,0.241h1.938c0.083,0,0.151-0.108,0.151-0.241c0-0.132-0.068-0.24-0.151-0.24h-1.938   c-0.083,0-0.151,0.108-0.151,0.24v-1.571c0,0.133,0.052,0.241,0.118,0.241h3.035c0.065,0,0.118-0.108,0.118-0.241   c0-0.132-0.053-0.24-0.118-0.24h-3.035c-0.065,0-0.118,0.108-0.118,0.24v-1.571c0,0.133,0.067,0.241,0.151,0.241h1.938   c0.083,0,0.151-0.107,0.151-0.241c0-0.133-0.068-0.241-0.151-0.241h-1.938c-0.083,0-0.151,0.108-0.151,0.241v-1.571   c0,0.133,0.052,0.24,0.118,0.24h3.035c0.065,0,0.118-0.107,0.118-0.24s-0.053-0.241-0.118-0.241h-3.035   c-0.065,0-0.118,0.108-0.118,0.241v-1.571c0,0.133,0.067,0.241,0.151,0.241h1.938c0.083,0,0.151-0.108,0.151-0.241   c0-0.132-0.068-0.241-0.151-0.241h-1.938c-0.083,0-0.151,0.108-0.151,0.241v-1.57c0,0.132,0.052,0.24,0.118,0.24h3.035   c0.065,0,0.118-0.108,0.118-0.24c0-0.133-0.053-0.241-0.118-0.241h-3.035c-0.065,0-0.118,0.108-0.118,0.241v-1.572   c0,0.133,0.067,0.241,0.151,0.241h1.938c0.083,0,0.151-0.108,0.151-0.241c0-0.132-0.068-0.241-0.151-0.241h-1.938   c-0.083,0-0.151,0.108-0.151,0.241v-1.57c0,0.132,0.052,0.24,0.118,0.24h3.035c0.065,0,0.118-0.108,0.118-0.24   c0-0.133-0.053-0.241-0.118-0.241h-3.035c-0.065,0-0.118,0.108-0.118,0.241v-1.572c0,0.134,0.067,0.241,0.151,0.241h1.938   c0.083,0,0.151-0.107,0.151-0.241c0-0.133-0.068-0.24-0.151-0.24h-1.938c-0.083,0-0.151,0.107-0.151,0.24v-1.571   c0,0.133,0.052,0.241,0.118,0.241h3.035c0.065,0,0.118-0.107,0.118-0.241c0-0.133-0.053-0.24-0.118-0.24h-3.035   c-0.065,0-0.118,0.107-0.118,0.24v-1.571c0,0.133,0.067,0.242,0.151,0.242h1.938c0.083,0,0.151-0.108,0.151-0.242   c0-0.132-0.068-0.24-0.151-0.24h-1.938c-0.083,0-0.151,0.108-0.151,0.24v-1.33h6.342V234.056z"
   fill="#2E7D96" />
</g>
<circle
   id="circle329"
   r="53.461"
   cy="254.944"
   cx="241.497"
   fill="#4570B2" />
<g
   id="g355">
	<path
   id="path331"
   d="M247.672,272.437h0.016c-0.112-0.046-0.226-0.091-0.337-0.136c6.267-2.601,12.067-5.5,15.372-9.574   c0.028-0.035,0.056-0.069,0.084-0.104c0.131-0.164,0.256-0.33,0.378-0.497c0.038-0.051,0.074-0.103,0.111-0.154   c0.115-0.162,0.227-0.326,0.334-0.491c0.037-0.056,0.07-0.113,0.106-0.169c0.104-0.168,0.208-0.336,0.305-0.507   c0.02-0.035,0.037-0.07,0.056-0.104c0.201-0.365,0.383-0.739,0.545-1.123c0.019-0.044,0.041-0.087,0.059-0.132   c0.059-0.144,0.111-0.292,0.164-0.438c0.04-0.11,0.081-0.219,0.117-0.33c0.045-0.137,0.085-0.276,0.125-0.415   c0.037-0.127,0.072-0.255,0.104-0.384c0.033-0.132,0.064-0.267,0.092-0.401c0.031-0.143,0.058-0.288,0.083-0.433   c0.022-0.127,0.044-0.254,0.062-0.383c0.023-0.168,0.042-0.34,0.058-0.512c0.011-0.111,0.024-0.221,0.032-0.333   c0.019-0.271,0.03-0.547,0.031-0.826c0-0.015,0.001-0.029,0.001-0.043c0-0.001,0-0.002,0-0.003s0-0.002,0-0.004   c0-0.014-0.001-0.028-0.001-0.043c-0.001-0.279-0.012-0.554-0.031-0.826c-0.008-0.112-0.021-0.222-0.032-0.333   c-0.016-0.172-0.034-0.343-0.058-0.512c-0.018-0.129-0.041-0.256-0.062-0.383c-0.025-0.146-0.052-0.29-0.083-0.433   c-0.028-0.135-0.059-0.269-0.092-0.401c-0.033-0.129-0.068-0.257-0.104-0.385c-0.041-0.139-0.08-0.277-0.125-0.414   c-0.037-0.111-0.077-0.22-0.117-0.33c-0.053-0.147-0.105-0.294-0.164-0.439c-0.018-0.044-0.039-0.087-0.058-0.131   c-0.163-0.384-0.345-0.758-0.546-1.124c-0.019-0.034-0.036-0.069-0.055-0.104c-0.097-0.172-0.201-0.34-0.306-0.508   c-0.035-0.056-0.068-0.112-0.104-0.167c-0.107-0.167-0.22-0.33-0.335-0.493c-0.037-0.051-0.072-0.102-0.109-0.152   c-0.123-0.168-0.249-0.334-0.379-0.499c-0.028-0.035-0.056-0.069-0.083-0.103c-3.304-4.074-9.105-6.974-15.372-9.575   c0.111-0.046,0.225-0.09,0.337-0.136h-0.016c9.802-4.039,18.579-8.758,18.579-17.501h-4.341c0,7.162-10.297,11.317-20.412,15.296   c-10.116-3.979-20.413-8.135-20.413-15.296h-4.341c0,8.743,8.777,13.462,18.58,17.501h-0.016c0.111,0.046,0.225,0.09,0.337,0.136   c-6.268,2.601-12.068,5.5-15.372,9.575c-0.028,0.034-0.056,0.068-0.083,0.103c-0.131,0.164-0.257,0.33-0.38,0.499   c-0.037,0.05-0.073,0.101-0.109,0.152c-0.115,0.163-0.228,0.326-0.335,0.493c-0.036,0.055-0.07,0.111-0.104,0.167   c-0.105,0.168-0.209,0.337-0.306,0.509c-0.019,0.033-0.036,0.067-0.054,0.1c-0.202,0.367-0.385,0.742-0.547,1.127   c-0.019,0.044-0.04,0.086-0.059,0.131c-0.059,0.145-0.11,0.292-0.164,0.439c-0.04,0.11-0.081,0.219-0.117,0.33   c-0.045,0.137-0.085,0.275-0.125,0.414c-0.037,0.127-0.073,0.255-0.104,0.385c-0.034,0.132-0.064,0.266-0.093,0.401   c-0.031,0.143-0.058,0.287-0.083,0.433c-0.022,0.127-0.044,0.254-0.062,0.383c-0.024,0.168-0.041,0.34-0.058,0.512   c-0.011,0.111-0.024,0.221-0.032,0.333c-0.019,0.271-0.029,0.547-0.03,0.826c0,0.015-0.001,0.029-0.001,0.043   c0,0.001,0,0.002,0,0.004s0,0.002,0,0.003c0,0.015,0.001,0.029,0.001,0.043c0.001,0.279,0.012,0.555,0.03,0.826   c0.008,0.112,0.021,0.222,0.032,0.333c0.017,0.172,0.034,0.343,0.058,0.512c0.018,0.129,0.04,0.256,0.062,0.383   c0.025,0.145,0.052,0.29,0.083,0.433c0.028,0.135,0.059,0.269,0.093,0.401c0.032,0.129,0.067,0.257,0.104,0.384   c0.04,0.139,0.08,0.278,0.125,0.415c0.036,0.111,0.077,0.22,0.117,0.33c0.053,0.146,0.105,0.294,0.164,0.438   c0.019,0.045,0.04,0.087,0.059,0.132c0.163,0.385,0.346,0.76,0.547,1.126c0.018,0.033,0.035,0.067,0.054,0.1   c0.097,0.172,0.2,0.34,0.305,0.508c0.035,0.057,0.069,0.113,0.105,0.169c0.107,0.166,0.219,0.329,0.334,0.491   c0.036,0.052,0.073,0.103,0.111,0.154c0.122,0.167,0.248,0.333,0.378,0.497c0.027,0.035,0.056,0.069,0.084,0.104   c3.304,4.074,9.104,6.973,15.372,9.574c-0.112,0.045-0.226,0.09-0.337,0.136h0.016c-9.802,4.039-18.579,8.758-18.579,17.501h4.341   c0-7.162,10.297-11.317,20.413-15.297c10.115,3.979,20.413,8.135,20.413,15.297h4.341   C266.25,281.195,257.474,276.476,247.672,272.437z M241.497,239.918c9.89,3.899,19.728,8.026,19.732,15.026   c-0.004,6.999-9.842,11.126-19.732,15.025c-9.89-3.899-19.729-8.026-19.732-15.025   C221.769,247.944,231.607,243.817,241.497,239.918z"
   fill="#FFFFFF" />
	<path
   id="path333"
   d="M247.865,244.449c0,0.45-0.364,0.813-0.814,0.813h-11.109c-0.449,0-0.814-0.364-0.814-0.813l0,0   c0-0.45,0.365-0.814,0.814-0.814h11.109C247.501,243.635,247.865,243.999,247.865,244.449L247.865,244.449z"
   fill="#FFFFFF" />
	<path
   id="path335"
   d="M253.758,249.604c0,0.449-0.364,0.813-0.813,0.813H230.05c-0.45,0-0.813-0.364-0.813-0.813l0,0   c0-0.45,0.364-0.814,0.813-0.814h22.895C253.394,248.79,253.758,249.154,253.758,249.604L253.758,249.604z"
   fill="#FFFFFF" />
	<path
   id="path337"
   d="M258.476,254.759c0,0.45-0.365,0.814-0.814,0.814h-32.329c-0.449,0-0.814-0.364-0.814-0.814l0,0   c0-0.449,0.365-0.813,0.814-0.813h32.329C258.11,253.945,258.476,254.31,258.476,254.759L258.476,254.759z"
   fill="#FFFFFF" />
	<path
   id="path339"
   d="M247.865,278.814c0,0.449-0.364,0.813-0.814,0.813h-11.109c-0.449,0-0.814-0.364-0.814-0.813l0,0   c0-0.45,0.365-0.814,0.814-0.814h11.109C247.501,278,247.865,278.364,247.865,278.814L247.865,278.814z"
   fill="#FFFFFF" />
	<path
   id="path341"
   d="M253.758,283.969c0,0.45-0.364,0.814-0.813,0.814H230.05c-0.45,0-0.813-0.364-0.813-0.814l0,0   c0-0.45,0.364-0.814,0.813-0.814h22.895C253.394,283.155,253.758,283.519,253.758,283.969L253.758,283.969z"
   fill="#FFFFFF" />
	<path
   id="path343"
   d="M258.476,289.124c0,0.449-0.365,0.814-0.814,0.814h-32.329c-0.449,0-0.814-0.365-0.814-0.814l0,0   c0-0.449,0.365-0.814,0.814-0.814h32.329C258.11,288.31,258.476,288.675,258.476,289.124L258.476,289.124z"
   fill="#FFFFFF" />
	<path
   id="path345"
   d="M253.758,259.915c0,0.449-0.364,0.813-0.813,0.813H230.05c-0.45,0-0.813-0.364-0.813-0.813l0,0   c0-0.45,0.364-0.814,0.813-0.814h22.895C253.394,259.1,253.758,259.465,253.758,259.915L253.758,259.915z"
   fill="#FFFFFF" />
	<path
   id="path347"
   d="M247.865,265.069c0,0.45-0.364,0.814-0.814,0.814h-11.109c-0.449,0-0.814-0.364-0.814-0.814l0,0   c0-0.45,0.365-0.814,0.814-0.814h11.109C247.501,264.255,247.865,264.62,247.865,265.069L247.865,265.069z"
   fill="#FFFFFF" />
	<path
   id="path349"
   d="M258.476,220.764c0,0.449-0.365,0.814-0.814,0.814h-32.329c-0.449,0-0.814-0.365-0.814-0.814l0,0   c0-0.45,0.365-0.814,0.814-0.814h32.329C258.11,219.95,258.476,220.314,258.476,220.764L258.476,220.764z"
   fill="#FFFFFF" />
	<path
   id="path351"
   d="M253.758,225.919c0,0.45-0.364,0.813-0.813,0.813H230.05c-0.45,0-0.813-0.364-0.813-0.813l0,0   c0-0.45,0.364-0.814,0.813-0.814h22.895C253.394,225.105,253.758,225.469,253.758,225.919L253.758,225.919z"
   fill="#FFFFFF" />
	<path
   id="path353"
   d="M247.865,231.074c0,0.449-0.364,0.813-0.814,0.813h-11.109c-0.449,0-0.814-0.364-0.814-0.813l0,0   c0-0.45,0.365-0.814,0.814-0.814h11.109C247.501,230.26,247.865,230.625,247.865,231.074L247.865,231.074z"
   fill="#FFFFFF" />
</g>
<g
   id="g383">
	<circle
   id="circle357"
   r="29.725"
   cy="154.964"
   cx="239.36"
   fill="#17A94B" />
	<g
   id="g381">
		<g
   id="g363">
			<path
   id="path359"
   d="M228.107,170.309c-0.18,0.353-0.039,0.784,0.313,0.964l2.653,1.352c0.353,0.18,0.784,0.039,0.964-0.312     l1.207-2.368c-1.392-0.539-2.685-1.27-3.849-2.164L228.107,170.309z"
   fill="#FFFFFF" />
			<path
   id="path361"
   d="M250.613,170.265c0.179,0.353,0.039,0.785-0.313,0.964l-2.653,1.353c-0.353,0.18-0.784,0.04-0.964-0.313     l-1.207-2.367c1.392-0.538,2.685-1.27,3.849-2.164L250.613,170.265z"
   fill="#FFFFFF" />
		</g>
		<path
   id="path365"
   d="M246.276,153.963l-1.491-0.861v1.253h-3.629c-0.181-0.692-0.743-1.228-1.454-1.36v-5.477h1.378    l-0.86-1.491l-0.86-1.49l-0.861,1.49l-0.86,1.491h1.252v5.509c-0.801,0.208-1.395,0.93-1.395,1.796    c0,1.029,0.834,1.863,1.863,1.863c0.912,0,1.667-0.656,1.829-1.521h3.597v1.379l1.491-0.861l1.491-0.86L246.276,153.963z"
   fill="#FFFFFF" />
		<circle
   id="circle367"
   r="1.015"
   cy="141.169"
   cx="248.261"
   fill="#FFFFFF" />
		<circle
   id="circle369"
   r="1.015"
   cy="141.169"
   cx="230.458"
   fill="#FFFFFF" />
		<path
   id="path371"
   d="M251.666,137.19c-0.035,0.064-0.167,0.06-0.296-0.009l-1.685-0.91c-0.129-0.07-0.205-0.179-0.17-0.243    l0.455-0.842c0.035-0.064,0.167-0.06,0.296,0.01l1.684,0.91c0.129,0.07,0.206,0.179,0.17,0.243L251.666,137.19z"
   fill="#FFFFFF" />
		<path
   id="path373"
   d="M252.294,137.205l-0.339,0.628c-0.051,0.094-0.244,0.087-0.431-0.014l-2.453-1.325    c-0.187-0.102-0.298-0.26-0.247-0.354l0.331-0.613c-3.201-1.381-6.015-1.621-6.632-0.453c-0.714,1.351,13.016,8.61,13.731,7.259    C256.859,141.185,255.146,139.051,252.294,137.205z"
   fill="#FFFFFF" />
		<path
   id="path375"
   d="M227.054,137.19c0.035,0.064,0.167,0.06,0.296-0.009l1.685-0.91c0.128-0.07,0.205-0.179,0.17-0.243    l-0.455-0.842c-0.035-0.064-0.167-0.06-0.296,0.01l-1.684,0.91c-0.129,0.07-0.206,0.179-0.17,0.243L227.054,137.19z"
   fill="#FFFFFF" />
		<path
   id="path377"
   d="M226.426,137.205l0.339,0.628c0.051,0.094,0.244,0.087,0.432-0.014l2.453-1.325    c0.188-0.102,0.299-0.26,0.248-0.354l-0.332-0.613c3.201-1.381,6.015-1.621,6.632-0.453c0.714,1.351-13.016,8.61-13.73,7.259    C221.861,141.185,223.574,139.051,226.426,137.205z"
   fill="#FFFFFF" />
		<path
   id="path379"
   d="M248.995,142.644c-0.222,0.11-0.468,0.179-0.733,0.179c-0.914,0-1.653-0.74-1.653-1.653    c0-0.027,0.006-0.053,0.008-0.08c-2.166-1.147-4.635-1.799-7.256-1.799c-2.602,0-5.053,0.644-7.208,1.774    c0.002,0.036,0.011,0.069,0.011,0.105c0,0.913-0.74,1.653-1.653,1.653c-0.277,0-0.534-0.075-0.763-0.195    c-3.604,2.844-5.919,7.248-5.919,12.195c0,8.579,6.955,15.533,15.533,15.533s15.533-6.954,15.533-15.533    C254.893,149.886,252.586,145.489,248.995,142.644z M239.36,167.843c-7.19,0-13.02-5.829-13.02-13.02    c0-7.19,5.829-13.02,13.02-13.02s13.02,5.829,13.02,13.02C252.38,162.014,246.55,167.843,239.36,167.843z"
   fill="#FFFFFF" />
	</g>
</g>
<circle
   id="circle385"
   r="8.512"
   cy="83.939"
   cx="181.089"
   fill="#723cc4" />
<circle
   id="circle387"
   r="8.935"
   cy="118.555"
   cx="203.763"
   fill="#723cc4" />
<circle
   id="circle389"
   r="9.323"
   cy="77.579"
   cx="384.077"
   fill="#723cc4" />
<circle
   id="circle391"
   r="8.17"
   cy="112.194"
   cx="490.211"
   fill="#723cc4" />
<circle
   id="circle393"
   r="5.187"
   cy="154.823"
   cx="494.288"
   fill="#723cc4" />
<circle
   id="circle395"
   r="7.691"
   cy="118.555"
   cx="456.109"
   fill="#723cc4" />
<circle
   id="circle397"
   r="5.331"
   cy="112.194"
   cx="361.402"
   fill="#723cc4" />
<circle
   id="circle399"
   r="8.935"
   cy="196.004"
   cx="216.858"
   fill="#723cc4" />
<circle
   id="circle401"
   r="8.935"
   cy="324.342"
   cx="109.161"
   fill="#723cc4" />
<circle
   id="circle403"
   r="7.45"
   cy="433.92"
   cx="169.84"
   fill="#723cc4" />
<circle
   id="circle405"
   r="6.993"
   cy="365.75"
   cx="131.608"
   fill="#723cc4" />
<circle
   id="circle407"
   r="8.935"
   cy="454.42"
   cx="381.201"
   fill="#723cc4" />
<circle
   id="circle409"
   r="8.935"
   cy="390.414"
   cx="520.789"
   fill="#723cc4" />
<circle
   id="circle411"
   r="7.517"
   cy="455.838"
   cx="221.744"
   fill="#723cc4" />
<circle
   id="circle413"
   r="8.935"
   cy="341.841"
   cx="529.723"
   fill="#723cc4" />
<circle
   id="circle415"
   r="6.964"
   cy="103.259"
   cx="382.18"
   fill="#723cc4" />
<circle
   id="circle417"
   r="6.964"
   cy="228.12"
   cx="510.633"
   fill="#723cc4" />
<circle
   id="circle419"
   r="4.265"
   cy="189.121"
   cx="498.195"
   fill="#723cc4" />
<circle
   id="circle421"
   r="6.964"
   cy="241.787"
   cx="93.262"
   fill="#723cc4" />
<circle
   id="circle423"
   r="6.964"
   cy="164.34"
   cx="93.262"
   fill="#723cc4" />
<circle
   id="circle425"
   r="5.245"
   cy="72.698"
   cx="280.293"
   fill="#723cc4" />
<circle
   id="circle427"
   r="5.245"
   cy="154.823"
   cx="280.293"
   fill="#723cc4" />
<circle
   id="circle429"
   r="6.965"
   cy="172.704"
   cx="200.215"
   fill="#723cc4" />
<circle
   id="circle431"
   r="5.147"
   cy="311.828"
   cx="287.258"
   fill="#723cc4" />
<circle
   id="circle433"
   r="6.964"
   cy="403.369"
   cx="227.232"
   fill="#723cc4" />
<circle
   id="circle435"
   r="6.965"
   cy="384.828"
   cx="415.778"
   fill="#723cc4" />
<circle
   id="circle437"
   r="4.574"
   cy="259.779"
   cx="401.047"
   fill="#723cc4" />
<circle
   id="circle439"
   r="4.574"
   cy="260.727"
   cx="353.623"
   fill="#723cc4" />
<circle
   id="circle441"
   r="6.964"
   cy="228.12"
   cx="389.575"
   fill="#723cc4" />
<circle
   id="circle443"
   r="6.965"
   cy="151.386"
   cx="463.049"
   fill="#723cc4" />
<circle
   id="circle445"
   r="6.964"
   cy="90.639"
   cx="359.432"
   fill="#723cc4" />
<circle
   id="circle447"
   r="9.661"
   cy="372.551"
   cx="105.99"
   fill="#723cc4" />
<circle
   id="circle449"
   r="2.687"
   cy="450.358"
   cx="241.809"
   fill="#723cc4" />
<circle
   id="circle451"
   r="6.965"
   cy="415.899"
   cx="138.601"
   fill="#723cc4" />
<circle
   id="circle453"
   r="5.865"
   cy="387.878"
   cx="128.606"
   fill="#723cc4" />
</svg>